<?xml version="1.0" standalone="no"?><!DOCTYPE svg PUBLIC "-//W3C//DTD SVG 1.1//EN" "http://www.w3.org/Graphics/SVG/1.1/DTD/svg11.dtd" ><svg xmlns="http://www.w3.org/2000/svg"><metadata></metadata><defs><font id="HYDaSongJ" horiz-adv-x="1024"><font-face font-family="HYDaSongJ" font-weight="400" font-stretch="normal" units-per-em="1024" panose-1="2 1 6 0 0 1 1 1 1 1" ascent="819" descent="-204" x-height="1" bbox="14 -179 1004 788" underline-thickness="51" underline-position="-153" unicode-range="U+0038-ff0c" /><missing-glyph horiz-adv-x="1024" d="M176 643 q2 36 19.5 55 q17.5 19 47.5 19 q24 -1 45.5 -19.5 q21.5 -18.5 22.5 -45.5 q1 -27 -2 -53 q-5 -35 -9 -76 l-15 -146 q-16 -140 -18.5 -175 q-2.5 -35 -5 -51 q-2.5 -16 -3 -22.5 q-0.5 -6.5 -3 -12 q-2.5 -5.5 -7 -6 q-4.5 -0.5 -8.5 8.5 q-3 4 -3.5 15.5 q-0.5 11.5 -7 55.5 q-6.5 44 -20.5 169.5 q-14 125.5 -22.5 179 q-8.5 53.5 -10 75 q-1.5 21.5 -0.5 29.5 ZM246 -4 q17 -1 34 -10 q17 -9 27 -27 q10 -18 10.5 -38 q0.5 -20 -9.5 -37 q-10 -18 -26.5 -27.5 q-16.5 -9.5 -35.5 -9.5 q-20 -1 -37 9 q-17 10 -26 27 q-9 17 -9 39 q0 20 9 37.5 q9 17.5 26.5 27 q17.5 9.5 36.5 9.5 Z" /><glyph glyph-name="" unicode="8" d="M327 358 q12 -8 22.5 -15.5 q10.5 -7.5 25 -20 q14.5 -12.5 28.5 -26.5 q14 -14 25.5 -31.5 q11.5 -17.5 20.5 -39.5 q9 -22 11.5 -40.5 q2.5 -18.5 3 -39.5 q0.5 -21 -9.5 -49 q-16 -45 -50 -78 q-34 -33 -63.5 -44 q-29.5 -11 -51 -13.5 q-21.5 -2.5 -36.5 -2.5 q-22 -1 -42 1.5 q-20 2.5 -40 7.5 q-20 5 -43.5 18 q-23.5 13 -45.5 38 q-22 25 -30.5 51 q-8.5 26 -8.5 57 q0 32 10 57.5 q10 25.5 28 48 q18 22.5 37 36.5 l34 22 l25 17 q-38 29 -54 45.5 q-16 16.5 -29 35 q-13 18.5 -23 40.5 q-10 22 -11 48.5 q-1 26.5 1 40.5 q3 29 15 52.5 q12 23.5 29 40.5 q17 17 36 30.5 q19 13.5 38.5 19.5 q19.5 6 42 8.5 q22.5 2.5 42.5 2.5 q27 -1 51 -6.5 q24 -5.5 52 -20.5 q28 -15 45.5 -36 q17.5 -21 24.5 -41 q7 -20 7 -51 q-1 -31 -9.5 -53 q-8.5 -22 -28.5 -44 q-20 -22 -36 -34 l-25 -18 l-18 -14 l0 0 ZM214 288 q-14 -11 -22.5 -19.5 q-8.5 -8.5 -20.5 -28 q-12 -19.5 -17 -33.5 q-5 -14 -7.5 -33.5 q-2.5 -19.5 -3 -39.5 q-0.5 -20 3.5 -42 q4 -30 15 -51 q11 -21 34.5 -35.5 q23.5 -14.5 58.5 -13.5 q29 0 55 14 q26 14 40 40 q14 26 14 64 q-1 31 -11.5 54.5 q-10.5 23.5 -32.5 46 q-22 22.5 -47 41 q-25 18.5 -40 26.5 l-19 10 l0 0 ZM290 383 q12 10 27 23.5 q15 13.5 29 42.5 q14 29 15.5 65 q1.5 36 -11.5 67 q-8 16 -21 30 q-13 14 -36 22.5 q-23 8.5 -42 9.5 q-25 0 -46 -10 q-21 -10 -37.5 -32.5 q-16.5 -22.5 -15.5 -55.5 q0 -23 7.5 -40.5 q7.5 -17.5 21.5 -36 q14 -18.5 43 -42 q29 -23.5 43 -30.5 l23 -13 l0 0 Z" /><glyph glyph-name="" unicode="a" d="M731 0 l0 -35 l-293 0 l0 35 l28 0 q14 0 23 4.5 q9 4.5 13.5 12.5 q4.5 8 5 23.5 q0.5 15.5 -2.5 27.5 l-29 107 l-249 0 l-38 -128 q-4 -11 -2.5 -21.5 q1.5 -10.5 7.5 -16 q6 -5.5 17 -7.5 q11 -2 23 -2 l31 0 l0 -35 l-221 0 l0 35 l22 0 q11 0 24 5 q13 5 25 15 q12 10 20.5 24.5 q8.5 14.5 14.5 32.5 l196 602 l128 0 l161 -576 q3 -11 12 -38.5 q9 -27.5 19 -40.5 q10 -13 24.5 -18.5 q14.5 -5.5 28.5 -5.5 l12 0 ZM239 213 l227 0 l-106 377 l-121 -377 Z" /><glyph glyph-name="" unicode="p" d="M332 -1 l0 -36 l-318 0 l0 36 l43 0 q17 0 24.5 1 q7.5 1 13 6.5 q5.5 5.5 7.5 13 q2 7.5 2 26.5 l0 568 q0 18 -4.5 25 q-4.5 7 -11 9 q-6.5 2 -20.5 2 l-54 0 l0 35 l370 0 q31 0 56.5 -4.5 q25.5 -4.5 56 -14.5 q30.5 -10 57.5 -35 q27 -25 38 -56 q11 -31 11.5 -58 q0.5 -27 -1.5 -41 q-4 -23 -18.5 -58 q-14.5 -35 -44.5 -60 q-30 -25 -63.5 -37 q-33.5 -12 -52.5 -14 q-19 -2 -52 -2 l-127 -1 l0 -258 q0 -16 1.5 -24.5 q1.5 -8.5 5.5 -13.5 q4 -5 12.5 -7 q8.5 -2 20.5 -2 l48 0 ZM244 347 l63 0 q28 0 54.5 6 q26.5 6 43.5 19 q17 13 29 38.5 q12 25.5 15 55.5 q3 30 3.5 53.5 q0.5 23.5 -9.5 52.5 q-8 20 -23 38 q-15 18 -39.5 28.5 q-24.5 10.5 -64.5 10.5 l-73 0 l1 -302 Z" /><glyph glyph-name="" unicode="·" d="M513 205 q-50 -1 -80.5 30.5 q-30.5 31.5 -25.5 104 q5 72.5 75.5 76.5 q70.5 4 103.5 -29.5 q33 -33.5 33.5 -77.5 q0.5 -44 -32.5 -74 q-33 -30 -74 -30 Z" /><glyph glyph-name="" unicode="&#x4e07;" d="M28 681 l64 -6 l701 0 q34 43 50 63.5 q16 20.5 22.5 21 q6.5 0.5 20.5 -8.5 q45 -33 67 -58 q22 -25 20 -31.5 q-2 -6.5 -17 -6.5 l-459 0 q-12 -18 -30 -28 q-3 -83 -4 -102 l-6 -76 l246 0 q30 43 39 45 q9 2 26 -5 q32 -15 61.5 -32 q29.5 -17 32.5 -26 q3 -15 -32 -37 q-15 -178 -26.5 -281.5 q-11.5 -103.5 -54 -179.5 q-42.5 -76 -180.5 -75 q-20 0 -25 3 q-5 3 -3 29.5 q2 26.5 -20.5 47 q-22.5 20.5 -47.5 31.5 l-39 16 q-10 3 -9.5 9.5 q0.5 6.5 17.5 5.5 l50 -9 q110 -20 144.5 14 q34.5 34 50 152 q15.5 118 18.5 163 l7 110 l-257 0 q-5 -43 -17.5 -141 q-12.5 -98 -61 -181 q-48.5 -83 -99.5 -122 q-51 -39 -108 -67 q-57 -28 -80 -36 l-41 -15 q-11 -4 -14 2 q-3 6 8 12 l32 19 q154 91 198 203 q44 112 54 221.5 q10 109.5 11 207.5 l1 122 l-234 0 l-48 -3 l-28 29 Z" /><glyph glyph-name="" unicode="&#x4e0b;" d="M43 677 l87 -6 l635 0 q33 45 51 69 q18 24 27 24.5 q9 0.5 24 -9.5 q8 -6 43 -35 q35 -29 47 -44.5 q12 -15.5 9.5 -20.5 q-2.5 -5 -14.5 -5 l-374 0 q-5 -21 -29 -28 l0 -198 q82 -13 154.5 -38 q72.5 -25 100 -76 q27.5 -51 20.5 -88 q-6 -28 -25 -45.5 q-19 -17.5 -48 -16.5 q-35 1 -48.5 18 q-13.5 17 -26 68 q-12.5 51 -43.5 85.5 q-31 34.5 -83 69.5 l0 -400 l7 -121 q-2 -14 -10 -25 q-8 -11 -35.5 -15 q-27.5 -4 -52.5 -5 q-25 -1 -30 6.5 q-5 7.5 -6 21.5 l9 140 l-1 647 l-294 0 l-66 -3 l-28 30 Z" /><glyph glyph-name="" unicode="&#x4e0d;" d="M549 662 q52 -19 74 -34.5 q22 -15.5 20 -23.5 q-2 -8 -13 -12 l-12 -3 l-13 -5 q-36 -48 -74 -104 q38 -11 45 -16.5 q7 -5.5 7.5 -12.5 q0.5 -7 -8.5 -12 l-18 -11 l0 -429 l6 -112 q-3 -22 -13.5 -32.5 q-10.5 -10.5 -57.5 -15.5 q-47 -5 -53.5 4.5 q-6.5 9.5 -8.5 21.5 l7 135 l0 362 q-148 -170 -330 -274 l-42 -24 q-11 -6 -14.5 -1 q-3.5 5 5.5 13 l42 36 q78 67 172.5 190.5 q94.5 123.5 141 224.5 q46.5 101 55.5 135 l-341 0 l-63 -3 l-26 29 l68 -6 l661 0 q60 79 70 81 q10 2 23 -5 q5 -4 39.5 -34.5 q34.5 -30.5 42 -39.5 q7.5 -9 5.5 -15.5 q-2 -6.5 -17 -6.5 l-380 0 ZM611 390 q2 9 21 3 q3 -2 95 -27.5 q92 -25.5 168.5 -100.5 q76.5 -75 80.5 -124 q4 -49 -20 -73.5 q-24 -24.5 -55 -21.5 q-27 2 -46.5 22.5 q-19.5 20.5 -42.5 71.5 q-23 51 -44 90.5 q-21 39.5 -44 63 q-23 23.5 -56 50 q-33 26.5 -46 32.5 q-13 6 -11 14 Z" /><glyph glyph-name="" unicode="&#x4e13;" d="M38 407 l67 -6 l266 0 q16 71 19 87 l15 82 l-251 0 l-48 -3 l-31 29 l66 -7 l269 0 l16 117 l5 73 q0 3 1.5 6 q1.5 3 17.5 -1 l33 -6 q98 -19 102 -39 q2 -16 -35 -28 l-22 -122 l194 0 l58 74 q13 17 21.5 18.5 q8.5 1.5 23.5 -8.5 q3 -3 41 -37 q38 -34 45.5 -43.5 q7.5 -9.5 5.5 -16 q-2 -6.5 -17 -6.5 l-377 0 l-34 -169 l303 0 l59 75 q13 16 20.5 17.5 q7.5 1.5 24.5 -11.5 q71 -58 82 -72.5 q11 -14.5 9 -21 q-2 -6.5 -17 -6.5 l-485 0 l-30 -132 l219 0 q30 36 38 38.5 q8 2.5 27 -8.5 q100 -61 109 -79.5 q9 -18.5 3 -26.5 q-4 -6 -36.5 -12 q-32.5 -6 -58.5 -15 q-26 -9 -155 -114 q28 -18 55 -41 q27 -23 31 -63.5 q4 -40.5 -12.5 -67 q-16.5 -26.5 -59.5 -22.5 q-34 2 -44.5 17.5 q-10.5 15.5 -23 39.5 q-12.5 24 -30.5 51.5 q-18 27.5 -44.5 56.5 q-26.5 29 -90.5 61 l-32 15 q-7 3 -9 10 q-2 7 25 5 l28 -3 q94 -15 182 -48 q54 96 101 187 l-220 0 q-22 -19 -34.5 -31.5 q-12.5 -12.5 -20.5 -14 q-8 -1.5 -21 6.5 q-18 9 -51.5 39.5 q-33.5 30.5 -30.5 38.5 q0 2 47 31 q12 43 20 81 l-246 0 l-49 -3 l-33 28 Z" /><glyph glyph-name="" unicode="&#x4e66;" d="M37 267 l74 -6 l268 0 l0 226 l-165 0 l-59 -3 l-26 29 l73 -6 l177 0 l0 146 l-7 114 q3 6 16 6 q114 -9 126.5 -18 q12.5 -9 13.5 -15 q0 -12 -29 -27 l0 -206 l149 0 q23 42 33.5 44.5 q10.5 2.5 30.5 -7.5 l38 -18 q48 -23 50 -37 q0 -8 -36 -39 l-21 -189 l79 0 q24 45 36 47 q12 2 31 -8 q91 -52 91 -65 q-1 -10 -33 -32 q-9 -81 -16.5 -129 q-7.5 -48 -29.5 -101 q-22 -53 -92.5 -68 q-70.5 -15 -75.5 -1 q-1 2 -1.5 11 q-0.5 9 -3 22 q-2.5 13 -10.5 32.5 q-8 19.5 -46 37.5 l-31 15 q-17 8 -14.5 14 q2.5 6 20.5 3 l35 -6 q71 -13 92 -4.5 q21 8.5 31 24.5 q10 16 15 57 l9 83 l2 51 l-332 0 l0 -243 l7 -121 q-2 -15 -10 -26.5 q-8 -11.5 -61 -15 q-53 -3.5 -58.5 4 q-5.5 7.5 -5.5 23.5 l8 135 l0 243 l-253 0 l-60 -3 l-29 26 ZM499 261 l131 0 l25 226 l-156 0 l0 -226 ZM670 725 q29 -1 62.5 -2.5 q33.5 -1.5 85 -15.5 q51.5 -14 84 -47.5 q32.5 -33.5 31.5 -70 q-1 -36.5 -22.5 -55.5 q-21.5 -19 -48.5 -15 q-32 3 -60 42 l-20 31 q-46 69 -90 89 q-44 20 -56 22.5 q-12 2.5 -15 6.5 q-3 4 -0.5 8.5 q2.5 4.5 14.5 5.5 l35 1 Z" /><glyph glyph-name="" unicode="&#x4eab;" d="M638 277 q13 9 26 22 q13 13 20.5 15 q7.5 2 34.5 -10 q41 -21 68.5 -36.5 q27.5 -15.5 34.5 -23 q7 -7.5 5 -16.5 q-3 -11 -32 -12 l-30 0 q-23 -1 -79.5 -15 q-56.5 -14 -66.5 -20 l-48 -25 l0 -64 l225 0 q29 38 46 61 q17 23 26 23.5 q9 0.5 26 -11.5 q88 -70 83 -81.5 q-5 -11.5 -17 -11.5 l-389 0 l0 -141 q0 -34 -17 -62.5 q-17 -28.5 -120 -33.5 q-13 -1 -19.5 1.5 q-6.5 2.5 -8.5 6.5 q-2 4 -5.5 40.5 q-3.5 36.5 -62.5 52.5 l-35 9 q-14 3 -13.5 11 q0.5 8 15.5 7 l46 -6 q75 -10 87.5 1 q12.5 11 12.5 38 l0 76 l-339 0 l-51 -3 l-26 29 l68 -6 l348 0 l0 44 l-4 71 q3 8 16 6 l41 -6 q13 -3 75 -17 q33 32 65 68 l-397 0 l-51 -3 l-27 29 l69 -7 l400 0 ZM131 604 l-51 -2 l-27 29 l69 -7 l356 0 q-13 11 -20.5 21 q-7.5 10 -9 19.5 q-1.5 9.5 -4 32.5 q-2.5 23 -12.5 36 q-10 13 -23 22 l-14 9 q-10 5 -8.5 13.5 q1.5 8.5 27.5 6.5 q8 -1 58.5 -4 q50.5 -3 81.5 -31.5 q31 -28.5 33 -55.5 q2 -41 -41 -69 l225 0 q14 18 21 27 l32 45 q14 18 23.5 19.5 q9.5 1.5 26.5 -10.5 q7 -6 37.5 -33 q30.5 -27 42 -39.5 q11.5 -12.5 7.5 -20.5 q-4 -8 -17 -8 l-813 0 ZM362 361 l0 -14 q0 -7 -19 -14 q-19 -7 -55 -8 q-21 -1 -29.5 3 q-8.5 4 -13.5 13 l5 80 l0 73 l-5 76 q7 6 23 0 l95 -42 l281 0 q33 40 38 42 q5 2 22 -4 q92 -37 93 -56 q0 -7 -27 -28 l0 -69 l4 -54 q-6 -17 -22.5 -24.5 q-16.5 -7.5 -50.5 -8.5 q-46 -3 -46 17 l0 18 l-293 0 ZM362 380 l293 0 l0 129 l-293 0 l0 -129 Z" /><glyph glyph-name="" unicode="&#x4ef7;" d="M647 694 q6 -21 25 -65.5 q19 -44.5 113 -115 q94 -70.5 169 -82.5 l24 -4 q8 -2 8.5 -8 q0.5 -6 -7.5 -9 l-22 -9 q-21 -9 -32.5 -18.5 q-11.5 -9.5 -23 -26 q-11.5 -16.5 -18 -36 q-6.5 -19.5 -13.5 -18.5 q-5 0 -37.5 23 q-32.5 23 -61.5 54 l-11 -12 l0 -385 l4 -87 q-2 -12 -10.5 -24 q-8.5 -12 -50 -16 q-41.5 -4 -47 3 q-5.5 7 -6.5 19 l6 102 l0 332 l-4 99 q4 5 16 5 q31 -2 81 -11 q-23 28 -41 53.5 q-18 25.5 -39 75.5 q-21 50 -31 95 l-13 54 q-85 -137 -150 -216.5 q-65 -79.5 -161 -146.5 l-30 -21 q-9 -6 -13.5 -1.5 q-4.5 4.5 4.5 14.5 l24 26 q65 71 119 180 q54 109 75 201 l8 36 l1 10 q4 10 32 2 l52 -11 q90 -23 88 -40 q-2 -12 -27 -21 ZM550 368 q-1 -45 -2 -84.5 q-1 -39.5 -8 -120 q-7 -80.5 -27 -130 q-20 -49.5 -76 -98.5 q-56 -49 -128 -70 l-23 -7 q-12 -4 -14.5 3 q-2.5 7 6.5 12 l27 16 q52 31 82 82.5 q30 51.5 41 104.5 q11 53 12 132.5 q1 79.5 1 104.5 l-1 69 l-2 33 q3 7 19 6 q105 -12 111 -19 q6 -7 6 -11 q-1 -7 -24 -23 ZM330 681 q-43 -81 -85 -157 q15 -9 25 -16.5 q10 -7.5 10.5 -17 q0.5 -9.5 -21.5 -17.5 l0 -488 l6 -102 q-2 -10 -9 -21.5 q-7 -11.5 -53 -15 q-46 -3.5 -51.5 3 q-5.5 6.5 -6.5 16.5 l6 126 l0 384 q-58 -72 -81 -96 l-24 -25 q-9 -10 -13.5 -6 q-4.5 4 0.5 15 l22 40 q41 75 69.5 165.5 q28.5 90.5 45 154.5 q16.5 64 20.5 87 l7 42 q1 11 3.5 14.5 q2.5 3.5 13.5 -0.5 q2 -1 14.5 -4 q12.5 -3 62.5 -18 q50 -15 63.5 -26 q13.5 -11 11.5 -19 q-4 -9 -36 -19 Z" /><glyph glyph-name="" unicode="&#x4f5c;" d="M658 672 q-60 -80 -74 -95 l-71 -79 l289 0 q34 43 50 63.5 q16 20.5 22.5 21 q6.5 0.5 20.5 -8.5 q44 -33 66.5 -58 q22.5 -25 20.5 -31.5 q-2 -6.5 -17 -6.5 l-296 0 q-10 -15 -26 -24 l0 -179 l133 -1 q59 76 69 76.5 q10 0.5 24 -9.5 q55 -43 66.5 -60.5 q11.5 -17.5 9.5 -22 q-2 -4.5 -12 -4.5 l-290 0 l0 -209 l182 0 q32 39 48 57.5 q16 18.5 22.5 19 q6.5 0.5 21.5 -10.5 q57 -48 68 -62.5 q11 -14.5 9 -19 q-2 -4.5 -13 -4.5 l-338 0 l0 -60 l6 -91 q-4 -14 -11.5 -22 q-7.5 -8 -31 -13.5 q-23.5 -5.5 -47.5 -6.5 q-24 -1 -29 6 q-5 7 -7 16 l7 120 l0 504 l-35 0 q-90 -85 -145 -127 l-39 -30 q-9 -7 -13.5 -1.5 q-4.5 5.5 1.5 12.5 l35 42 q50 60 111 170 q61 110 79 167 l13 42 q4 13 5 13.5 q1 0.5 3 1.5 q14 2 78 -28.5 q64 -30.5 69.5 -39 q5.5 -8.5 3.5 -14.5 q-4 -8 -38 -14 ZM238 510 q49 -18 52 -30 q2 -13 -17 -24 l0 -481 l6 -95 q-6 -16 -17.5 -24.5 q-11.5 -8.5 -31 -10.5 q-19.5 -2 -43.5 -2.5 q-24 -0.5 -29.5 6.5 q-5.5 7 -5.5 21 l7 97 l0 460 q-31 -26 -45 -38 l-48 -42 l-25 -21 q-9 -7 -12.5 -2 q-3.5 5 1.5 12 l29 39 q52 70 101.5 171.5 q49.5 101.5 68.5 170.5 l11 41 l1 13 q3 3 12 2 q12 -3 36 -13.5 q24 -10.5 41 -17 q17 -6.5 40.5 -19 q23.5 -12.5 25.5 -20.5 q2 -8 1 -11 q-3 -6 -36 -16 q-64 -91 -123 -166 Z" /><glyph glyph-name="" unicode="&#x514d;" d="M165 424 q-16 -10 -29 -18.5 q-13 -8.5 -16 -9.5 l-23 -12 q-12 -7 -17 -6.5 q-5 0.5 -7.5 4.5 q-2.5 4 27.5 29 l23 19 q13 10 52.5 56 q39.5 46 68 89 q28.5 43 54.5 92.5 q26 49.5 33 67.5 l10 27 q5 14 24 9 q5 -2 22.5 -5 q17.5 -3 72 -18 q54.5 -15 56.5 -25 q2 -17 -41 -25 q-37 -42 -71 -77 l140 -1 q17 16 34.5 35.5 q17.5 19.5 29.5 18.5 q5 -1 47 -25 q42 -24 59 -41.5 q17 -17.5 16 -23.5 q-3 -8 -18 -12 l-26 -4 q-17 -5 -91 -69 l-47 -41 l164 0 q12 16 22 30.5 q10 14.5 17.5 16 q7.5 1.5 23.5 -5.5 q94 -45 97 -60 q2 -16 -33 -33 l0 -104 l6 -90 q-5 -10 -13.5 -17.5 q-8.5 -7.5 -56.5 -14.5 q-48 -7 -48 26 l0 21 l-147 0 q46 -14 47 -26 q1 -12 -29 -20 l0 -166 q0 -23 10 -36.5 q10 -13.5 41.5 -14.5 q31.5 -1 80.5 0 q100 1 125 19 q25 18 54 93 l21 54 q5 13 12.5 12 q7.5 -1 5.5 -13 l-13 -59 q-7 -29 -5.5 -52 q1.5 -23 15.5 -42 l17 -23 q6 -12 6 -22 q-1 -46 -66.5 -59.5 q-65.5 -13.5 -168.5 -12.5 q-184 0 -211.5 27 q-27.5 27 -27.5 70 l0 232 q-63 -131 -111.5 -182.5 q-48.5 -51.5 -117.5 -93 q-69 -41.5 -141 -62.5 l-33 -10 q-21 -7 -31 -6.5 q-10 0.5 -10 5 q0 4.5 7 9.5 l25 11 l33 16 q20 9 63 41.5 q43 32.5 78 71 q35 38.5 72 104.5 q37 66 59 135 l-115 0 l0 -21 q0 -22 -23.5 -29 q-23.5 -7 -48.5 -7.5 q-25 -0.5 -31.5 5 q-6.5 5.5 -9.5 18.5 l6 92 l0 139 ZM252 480 l34 -22 l199 0 q37 70 68 142 l-168 2 q-63 -63 -133 -122 ZM272 247 l121 0 q5 18 8.5 32 q3.5 14 9 57.5 q5.5 43.5 6.5 50.5 l3 51 l-148 0 l0 -191 ZM727 247 l0 191 l-152 0 q-7 -16 -23 -28 l-35 -163 l210 0 Z" /><glyph glyph-name="" unicode="&#x5151;" d="M314 253 l0 -25 q0 -22 -35 -29 q-35 -7 -47 -6 q-20 0 -26 6 q-6 6 -8 18 l6 98 l0 171 l-5 91 q2 6 5 8 q3 2 19 -6 l99 -52 l222 -1 q59 116 85 215 l7 27 q2 9 66 -17 q64 -26 76.5 -35 q12.5 -9 12.5 -16 q-2 -14 -48 -24 q-81 -79 -155 -149 l89 0 q11 15 20.5 30 q9.5 15 17 17 q7.5 2 25.5 -5 q97 -44 100 -62 q1 -12 -31 -34 l0 -151 l6 -82 q-12 -29 -46 -34.5 q-34 -5.5 -53 -3.5 q-25 2 -25 21 l0 30 l-55 0 q-9 -12 -21 -21 l0 -214 q0 -18 8 -31 q8 -13 43 -14 q35 -1 80 -1 q89 -1 118 25 q29 26 51 95 l18 58 q4 14 11 13.5 q7 -0.5 6 -8.5 l-8 -68 q-3 -21 -1 -43.5 q2 -22.5 12 -38.5 l16 -22 q26 -43 -16 -80 q-46 -41 -204 -38 q-144 2 -181.5 15.5 q-37.5 13.5 -49 31.5 q-11.5 18 -11.5 57 l0 284 l-94 0 q78 -20 76.5 -36 q-1.5 -16 -30.5 -22 q-43 -115 -97 -205 q-54 -90 -229 -130 l-43 -10 q-15 -4 -24 -0.5 q-9 3.5 1 12.5 l25 9 l34 15 q69 30 112.5 87.5 q43.5 57.5 65.5 112.5 q22 55 34 115 l11 54 l-35 -2 ZM314 273 l377 0 l0 234 l-377 0 l0 -234 ZM281 733 l-15 13 q-7 5 -4.5 10 q2.5 5 15.5 5 q57 -3 112.5 -37.5 q55.5 -34.5 56 -75 q0.5 -40.5 -21 -62 q-21.5 -21.5 -50 -22 q-28.5 -0.5 -43.5 14.5 q-13 11 -17 34 l-3 48 q-2 21 -10.5 41 q-8.5 20 -19.5 31 Z" /><glyph glyph-name="" unicode="&#x5168;" d="M549 689 q35 -63 67.5 -99 q32.5 -36 118 -92.5 q85.5 -56.5 216.5 -77.5 l30 -5 q11 -2 10.5 -8 q-0.5 -6 -7.5 -8 l-27 -9 q-20 -7 -35 -27 q-15 -20 -24.5 -39.5 q-9.5 -19.5 -11.5 -29 q-2 -9.5 -8 -9.5 q-4 -1 -32.5 11.5 q-28.5 12.5 -88.5 54 q-60 41.5 -120 118.5 q-60 77 -79 127 l-30 71 q-60 -86 -149.5 -191 q-89.5 -105 -292.5 -197 l-33 -15 q-10 -5 -12.5 1 q-2.5 6 3.5 11 l30 23 q156 119 220.5 227 q64.5 108 103.5 208 l11 28 l4 12 q1 2 5 3 q13 3 92 -27 q79 -30 66 -47 q-3 -4 -27 -14 ZM83 -101 l58 -6 l280 0 l0 198 l-177 0 l-45 -3 l-22 27 l52 -5 l192 0 l0 198 l-127 0 l-48 -3 l-23 27 l57 -5 l296 0 q54 75 65.5 77 q11.5 2 26.5 -9 q37 -28 57.5 -51 q20.5 -23 18.5 -29.5 q-2 -6.5 -17 -6.5 l-151 0 q-7 -13 -12 -19 q-5 -6 -18 -10 l0 -169 l83 0 q33 38 50 62 q17 24 26 24 q5 -1 47.5 -36.5 q42.5 -35.5 50.5 -45.5 q8 -10 6 -16.5 q-2 -6.5 -17 -6.5 l-246 0 l0 -201 l166 0 q69 99 87 100 q7 0 17 -6.5 q10 -6.5 60 -50 q50 -43.5 44 -53 q-6 -9.5 -17 -9.5 l-751 0 l-44 -3 l-25 31 Z" /><glyph glyph-name="" unicode="&#x5229;" d="M269 437 l-118 0 l-69 -3 l-29 28 l83 -5 l153 0 l-1 166 q-31 -3 -39 -3.5 q-8 -0.5 -56 -1.5 q-48 -1 -79 -3 l-46 -3 q-13 -1 -10.5 6.5 q2.5 7.5 10.5 9.5 l35 8 q207 47 314 104 l32 17 q16 8 20 9 q4 1 18 -8 q30 -21 68 -52 q38 -31 38 -40 q-1 -9 -11 -10 l-37 -5 l-77 -10 l-77 -10 q29 -8 30.5 -19.5 q1.5 -11.5 -25.5 -25.5 l0 -130 l64 1 q52 70 62 71 q4 0 26 -15 q22 -15 42 -38.5 q20 -23.5 19 -30.5 q-1 -7 -5 -7 l-208 0 l0 -105 q46 -5 94 -15 q48 -10 70 -42.5 q22 -32.5 23 -60.5 q1 -28 -19.5 -48.5 q-20.5 -20.5 -45 -21 q-24.5 -0.5 -38.5 10 q-14 10.5 -21 40.5 l-8 43 q-5 19 -16 41 q-11 22 -39 35 l0 -284 l6 -139 q-2 -14 -9 -24.5 q-7 -10.5 -50.5 -12.5 q-43.5 -2 -50.5 5.5 q-7 7.5 -9 18.5 l6 135 l0 212 q-127 -122 -210 -179 l-22 -15 q-7 -5 -9.5 0.5 q-2.5 5.5 4.5 14.5 l22 26 q41 49 103 158.5 q62 109.5 92 206.5 ZM736 593 l0 -365 l5 -123 q-6 -23 -25 -28.5 q-19 -5.5 -49 -8 q-30 -2.5 -35.5 4 q-5.5 6.5 -6.5 20.5 l6 135 l0 295 l-5 132 q7 3 21 2 q101 -14 109 -21 q8 -7 9 -11 q2 -14 -29 -32 ZM945 690 l0 -766 q0 -39 -31 -52.5 q-31 -13.5 -66.5 -20.5 q-35.5 -7 -49.5 -4 q-5 0 -10 2 q-5 2 -8 6 q-3 4 -6.5 35 q-3.5 31 -70.5 56 l-33 12 q-10 3 -8.5 10 q1.5 7 8.5 7 l58 -9 q69 -11 89 -3 q20 8 20 26 l0 623 l-6 143 q7 3 22 3 q122 -8 127 -32 q2 -15 -35 -36 Z" /><glyph glyph-name="" unicode="&#x533a;" d="M226 649 l0 -725 l547 0 q39 47 56.5 69 q17.5 22 25 22.5 q7.5 0.5 22.5 -9.5 q12 -9 44.5 -38.5 q32.5 -29.5 42 -41.5 q9.5 -12 7.5 -16.5 q-2 -4.5 -11 -4.5 l-725 0 q-40 -45 -49.5 -46.5 q-9.5 -1.5 -25.5 9.5 q-13 7 -49 39 q-36 32 -33 44 q1 5 38 32 l0 622 l-6 126 q4 6 19 -2 l109 -61 l503 0 q61 83 71 84.5 q10 1.5 25 -9.5 q34 -27 61.5 -55.5 q27.5 -28.5 24.5 -33.5 q-3 -5 -13 -5 l-684 0 ZM534 303 q-96 97 -194 156 l-30 18 q-8 4 -6 10 q2 6 13 3 l36 -12 q122 -41 222 -109 q24 43 44.5 89 q20.5 46 26.5 65 l14 46 l1 12 q1 2 5 3 q6 1 49 -17.5 q43 -18.5 69.5 -38.5 q26.5 -20 26.5 -27 q-1 -21 -37 -20 q-53 -87 -107 -164 q88 -68 130 -122.5 q42 -54.5 43.5 -89.5 q1.5 -35 -19 -60.5 q-20.5 -25.5 -51 -23.5 q-30.5 2 -43 12.5 q-12.5 10.5 -22.5 32.5 l-19 40 q-9 17 -33 56 q-24 39 -51 68 q-63 -65 -125.5 -119 q-62.5 -54 -152.5 -94 l-42 -18 q-9 -4 -11.5 2.5 q-2.5 6.5 2.5 10.5 l30 24 q37 30 64.5 54 q27.5 24 77.5 86.5 q50 62.5 89 126.5 Z" /><glyph glyph-name="" unicode="&#x5343;" d="M37 365 l67 -6 l357 0 l0 233 q-30 -2 -44 -3 l-123 -11 q-2 -1 -138 -8 l-52 -3 q-11 -1 -13 7 q-2 8 10 11 l53 9 q80 13 271 64 q191 51 259 92 l27 16 q8 5 16 4 q16 -3 80.5 -61 q64.5 -58 60.5 -66 q-3 -5 -6.5 -6.5 q-3.5 -1.5 -26.5 -2.5 l-39 -3 q-46 -4 -217 -22 q30 -9 28.5 -20 q-1.5 -11 -23.5 -21 l0 -209 l197 0 q39 47 56 67.5 q17 20.5 24 22 q7 1.5 27 -13.5 l37 -28 q23 -19 38.5 -37.5 q15.5 -18.5 13.5 -24 q-2 -5.5 -19 -5.5 l-373 0 l-1 -355 l9 -105 q-2 -12 -12 -26.5 q-10 -14.5 -89 -13.5 q-27 0 -32.5 6.5 q-5.5 6.5 -7.5 18.5 l9 125 l0 350 l-344 0 l-54 -3 l-26 28 Z" /><glyph glyph-name="" unicode="&#x5347;" d="M315 357 l-3 226 q-144 -42 -205 -56 l-39 -9 q-10 -3 -13 3.5 q-3 6.5 6 10.5 l37 16 q100 43 187 101.5 q87 58.5 115 89.5 l22 24 q8 8 15 9 q13 0 63 -32.5 q50 -32.5 64 -43 q14 -10.5 13 -17 q-1 -6.5 -13 -10.5 l-33 -11 q-20 -7 -125 -45 q42 -11 47.5 -21.5 q5.5 -10.5 -16.5 -19.5 l-3 -215 l190 0 l0 279 l-5 124 q6 7 21 6 q104 -12 120.5 -22.5 q16.5 -10.5 16 -21 q-0.5 -10.5 -30.5 -24.5 l-1 -341 l59 0 l53 68 q13 16 19 17.5 q6 1.5 22 -11.5 q70 -60 79 -72 q9 -12 6.5 -17 q-2.5 -5 -14.5 -5 l-224 0 l0 -339 l5 -103 q-1 -16 -6.5 -24.5 q-5.5 -8.5 -30.5 -16 q-25 -7.5 -53.5 -8 q-28.5 -0.5 -35 8 q-6.5 8.5 -7.5 21.5 l7 126 l0 335 l-190 0 q-2 -51 -4 -89 q-2 -38 -6.5 -70.5 q-4.5 -32.5 -27 -90 q-22.5 -57.5 -106 -120 q-83.5 -62.5 -195.5 -93.5 l-32 -9 q-9 -3 -11 4 q-2 7 5 10 l29 12 q15 6 76 43.5 q61 37.5 99 107 q38 69.5 45 122.5 q7 53 9 119 l1 54 l-202 0 l-52 -3 l-19 28 l57 -5 l215 0 Z" /><glyph glyph-name="" unicode="&#x534a;" d="M434 181 l0 178 l-255 0 l-45 -3 l-31 29 l66 -6 l265 0 l0 266 l-7 122 q0 3 1.5 6.5 q1.5 3.5 20.5 1.5 q84 -13 111 -20 q27 -7 25 -18.5 q-2 -11.5 -31 -33.5 l0 -324 l33 0 q29 50 44 79 q15 29 41 89.5 q26 60.5 35 85.5 l14 40 l4 12 q4 7 20 0 q63 -30 103 -51 q40 -21 39 -34 q-2 -15 -53 -20 q-98 -90 -215 -201 l129 0 l53 65 q13 16 20.5 17.5 q7.5 1.5 24.5 -11.5 q47 -39 65.5 -59 q18.5 -20 16.5 -26 q-2 -6 -17 -6 l-357 0 l0 -178 l241 0 l52 66 q15 19 21.5 19.5 q6.5 0.5 17.5 -5.5 q12 -8 42 -35.5 q30 -27.5 40.5 -40 q10.5 -12.5 7.5 -18 q-3 -5.5 -11 -5.5 l-411 0 l0 -169 l7 -108 q-2 -16 -12 -31 q-10 -15 -58.5 -16 q-48.5 -1 -55.5 8 q-7 9 -9 24 l8 127 l0 165 l-309 0 l-49 -3 l-29 28 l61 -6 l326 0 ZM186 676 q24 -8 54.5 -19 q30.5 -11 79 -47 q48.5 -36 54 -84 q5.5 -48 -16 -77.5 q-21.5 -29.5 -56.5 -30 q-35 -0.5 -56 21.5 q-13 13 -17.5 29.5 q-4.5 16.5 -5 44.5 q-0.5 28 -5 54.5 q-4.5 26.5 -19.5 47.5 q-15 21 -25 30.5 q-10 9.5 -19 16 q-9 6.5 -9.5 15 q-0.5 8.5 21.5 3.5 l20 -5 Z" /><glyph glyph-name="" unicode="&#x53d1;" d="M350 458 q6 21 11.5 44.5 q5.5 23.5 15.5 95.5 q10 72 12 96 l4 70 q0 12 21 8 q1 -1 73 -11 q72 -10 74 -25 q1 -16 -41 -34 q-19 -107 -24 -129 l-25 -115 l327 0 q14 18 29.5 38.5 q15.5 20.5 23.5 30.5 q8 10 18 11.5 q10 1.5 37 -21.5 l34 -29 l21 -24 q14 -16 10.5 -21.5 q-3.5 -5.5 -10.5 -5.5 l-495 0 q-17 -62 -37 -118 l247 0 q25 41 34 43 q9 2 26 -6 l46 -22 q73 -37 73 -50 q-1 -16 -48 -23 q-64 -115 -127 -198 q127 -63 264 -73 l25 -2 q9 -1 9.5 -6.5 q0.5 -5.5 -9.5 -9.5 l-21 -9 q-17 -7 -34 -25 q-17 -18 -23.5 -30.5 q-6.5 -12.5 -14 -34 q-7.5 -21.5 -12.5 -21.5 q-2 -1 -7 1 q-5 2 -33.5 8.5 q-28.5 6.5 -94.5 48 q-66 41.5 -116 87.5 q-70 -51 -163.5 -88.5 q-93.5 -37.5 -165.5 -47.5 l-40 -6 l-27 -5 q-15 0 -16.5 5 q-1.5 5 13.5 12 l25 7 l38 14 q165 60 269 171 q-21 28 -43.5 65 q-22.5 37 -37.5 103 l-18 72 l-27 0 q-54 -117 -118 -200.5 q-64 -83.5 -195 -173.5 l-26 -18 q-12 -9 -20 -11 q-8 -2 -10 2.5 q-2 4.5 4 11.5 l17 15 l27 27 q74 73 144 201.5 q70 128.5 104 283.5 l-158 0 l-36 -37 q-8 -8 -12 -9.5 q-4 -1.5 -12.5 1.5 q-8.5 3 -23 15.5 q-14.5 12.5 -30.5 25 q-16 12.5 -23.5 20.5 q-7.5 8 -7.5 14 q0 6 9 12 l34 21 l33 121 l10 79 q4 10 18 8 q36 -8 81.5 -21 q45.5 -13 45.5 -24 q-2 -16 -37 -29 l-51 -176 l163 0 ZM592 122 q55 82 73 134 l15 43 l-212 0 q25 -64 52.5 -101.5 q27.5 -37.5 71.5 -75.5 ZM615 670 l-24 17 q-4 2 -1 6 q3 4 12 4 l30 -1 q114 -10 138 -49.5 q24 -39.5 24.5 -68.5 q0.5 -29 -22 -52 q-22.5 -23 -54.5 -20 q-23 1 -36 13.5 q-13 12.5 -16 21.5 q-3 9 -9 56 q-6 47 -42 73 Z" /><glyph glyph-name="" unicode="&#x54c1;" d="M356 -27 l-154 0 l0 -68 q0 -33 -79 -31 q-15 0 -20.5 3.5 q-5.5 3.5 -8.5 11.5 l5 94 l0 235 l-5 108 q2 2 4 3 l22 -11 l91 -37 l133 0 q27 43 35 45.5 q8 2.5 28 -5.5 q84 -39 88 -56 q3 -17 -28 -33 l0 -216 l6 -96 q-6 -13 -16.5 -20.5 q-10.5 -7.5 -59.5 -13.5 q-41 -6 -41 21 l0 66 ZM202 -7 l154 -1 l0 270 l-154 0 l0 -269 ZM658 444 l-324 0 l0 -37 q0 -15 -10.5 -29.5 q-10.5 -14.5 -73.5 -14.5 q-18 -1 -24.5 3.5 q-6.5 4.5 -10.5 13.5 l5 103 l0 176 l-4 87 q4 5 33 -6 l89 -35 l311 0 q27 45 34.5 47.5 q7.5 2.5 30.5 -8.5 l40 -18 q51 -25 55 -38 q4 -17 -30 -35 l0 -155 l6 -83 q-7 -24 -42 -34.5 q-35 -10.5 -59 -8.5 q-26 1 -26 26 l0 46 ZM334 463 l324 0 l0 223 l-324 0 l0 -223 ZM927 229 l-1 -217 l4 -86 q-4 -14 -12 -23 q-8 -9 -34 -13.5 q-26 -4.5 -43 -2.5 q-30 1 -30 23 l0 55 l-153 0 l0 -52 q0 -12 -4.5 -19 q-4.5 -7 -29.5 -13 q-25 -6 -45 -4 q-17 1 -24.5 6 q-7.5 5 -11.5 13 l6 99 l0 234 l-4 89 q2 2 3.5 2.5 q1.5 0.5 24.5 -8.5 l88 -37 l136 0 q13 19 21.5 34 q8.5 15 16.5 19 q8 4 36 -10 q60 -32 72 -41.5 q12 -9.5 13 -16.5 q0 -13 -29 -31 ZM658 -16 l153 0 l0 272 l-153 0 l0 -272 Z" /><glyph glyph-name="" unicode="&#x573a;" d="M552 354 l-29 0 l-30 -23 q-12 -9 -17.5 -9.5 q-5.5 -0.5 -13.5 4 q-8 4.5 -33.5 24.5 q-25.5 20 -38 28.5 q-12.5 8.5 -11 15.5 q1.5 7 21.5 14 l34 12 q120 106 260 269 l-209 0 l-54 -3 l-27 29 l70 -6 l219 0 q13 13 25.5 27.5 q12.5 14.5 20.5 15.5 q7 0 52 -26 q45 -26 59.5 -37.5 q14.5 -11.5 14.5 -19.5 q-2 -16 -62 -31 l-257 -263 l286 0 q30 41 36.5 42.5 q6.5 1.5 26.5 -8.5 q1 -1 47.5 -23.5 q46.5 -22.5 46.5 -36.5 q-1 -14 -33 -29 q-4 -50 -7 -100 q-3 -50 -13 -141 q-10 -91 -53 -162 q-43 -71 -166 -74 q-10 -1 -14 1.5 q-4 2.5 -5.5 6.5 q-1.5 4 -5.5 24.5 q-4 20.5 -23.5 39 q-19.5 18.5 -38.5 26.5 l-33 12 q-14 5 -12 12 q2 7 11 6 l41 -7 q35 -7 75 -3.5 q40 3.5 63.5 21.5 q23.5 18 38 70 q14.5 52 21 117.5 q6.5 65.5 6.5 116.5 l0 68 l-62 0 q20 -14 40 -24.5 q20 -10.5 18.5 -21 q-1.5 -10.5 -28.5 -18.5 q-55 -107 -98 -174 q-43 -67 -146.5 -122.5 q-103.5 -55.5 -226.5 -78.5 l-37 -7 q-17 -4 -28.5 -3.5 q-11.5 0.5 -12.5 4.5 q-1 4 14 11 l27 8 l30 10 q98 32 191 107.5 q93 75.5 130.5 157.5 q37.5 82 56.5 151 l-43 0 q7 -6 21.5 -18 q14.5 -12 -29.5 -22 q-83 -126 -151.5 -173 q-68.5 -47 -174.5 -80 l-35 -11 q-21 -7 -30 -6 q-9 1 -9.5 5 q-0.5 4 9.5 10 l22 9 l36 20 q105 58 155.5 134.5 q50.5 76.5 70.5 131.5 ZM84 494 l83 0 l0 153 l-6 117 q4 6 12 5 q4 -1 71 -9.5 q67 -8.5 70 -19.5 q3 -14 -36 -40 l0 -206 l20 0 q44 65 51.5 66.5 q7.5 1.5 21.5 -8.5 q22 -18 45.5 -41.5 q23.5 -23.5 21 -29.5 q-2.5 -6 -8.5 -6 l-151 0 l0 -277 q96 16 112 20 l57 13 q14 3 16.5 -3.5 q2.5 -6.5 -8.5 -11.5 l-27 -13 q-68 -33 -239 -135 l-87 -52 q-9 -6 -12 -5.5 q-3 0.5 -5 9.5 l-34 125 q-5 16 -3.5 18.5 q1.5 2.5 7.5 4.5 l81 8 l31 5 l0 294 l-58 0 l-52 -4 l-25 28 l52 -5 Z" /><glyph glyph-name="" unicode="&#x5927;" d="M404 396 l-280 0 l-49 -3 l-27 28 l63 -6 l294 0 q2 33 3.5 62.5 q1.5 29.5 1.5 66.5 q-1 22 -2.5 81 q-1.5 59 -3.5 84 l-3 33 l-2 20 q3 2 12 2 q131 -12 145.5 -21.5 q14.5 -9.5 16.5 -16.5 q1 -14 -36 -40 q-2 -45 -3 -67 l-8 -133 l-4 -71 l254 0 q66 85 72.5 85.5 q6.5 0.5 24.5 -14.5 l39 -32 q11 -10 28.5 -27.5 q17.5 -17.5 15.5 -24 q-2 -6.5 -14 -6.5 l-398 0 q20 -72 61 -152 q41 -80 144.5 -157.5 q103.5 -77.5 201.5 -93.5 l22 -4 q14 -3 15 -10.5 q1 -7.5 -10 -10.5 l-24 -7 q-27 -8 -56 -33 q-29 -25 -37.5 -47 q-8.5 -22 -12.5 -22 q-7 -1 -108 59 q-101 60 -149.5 185 q-48.5 125 -65.5 293 l-5 0 q-2 -29 -8.5 -101.5 q-6.5 -72.5 -39.5 -153 q-33 -80.5 -85.5 -132 q-52.5 -51.5 -136 -94.5 q-83.5 -43 -153.5 -62 l-22 -6 l-15 -5 q-18 -4 -19.5 3.5 q-1.5 7.5 22.5 19.5 l19 9 q149 70 210 159 q61 89 81.5 169 q20.5 80 27.5 158 l3 36 l0 0 Z" /><glyph glyph-name="" unicode="&#x597d;" d="M304 694 q-23 -92 -45 -192 l72 5 q22 37 26.5 39 q4.5 2 19.5 -3 q49 -21 70.5 -39.5 q21.5 -18.5 22.5 -23.5 q1 -13 -28 -29 q-25 -112 -46 -180.5 q-21 -68.5 -54 -137.5 q64 -39 85.5 -66.5 q21.5 -27.5 22 -54.5 q0.5 -27 -27 -55.5 q-27.5 -28.5 -49 -13 q-21.5 15.5 -29 27.5 q-7.5 12 -23 42.5 q-15.5 30.5 -17.5 34.5 l-12 15 q-51 -54 -98.5 -90 q-47.5 -36 -112.5 -63 l-26 -11 q-8 -4 -11 2.5 q-3 6.5 7 14.5 l22 16 q58 42 83.5 72.5 q25.5 30.5 82.5 113.5 q-46 38 -58.5 44 q-12.5 6 -23.5 7 q-3 0 -23.5 -2.5 q-20.5 -2.5 -41 4 q-20.5 6.5 -23 13.5 q-2.5 7 2.5 18 l14 34 q45 110 71 245 l-43 -3 l-50 -4 l-18 27 l57 -3 l59 3 q11 52 22.5 106.5 q11.5 54.5 15 83 q3.5 28.5 3.5 43.5 l0 18 q0 17 18 12 q90 -30 100 -34.5 q10 -4.5 11 -9.5 q2 -13 -28 -26 ZM175 185 q51 -8 84 -19 q46 109 78 321 l-83 -4 q-9 -39 -21 -89.5 q-12 -50.5 -58 -208.5 ZM628 320 l0 72 l-7 157 q8 2 20 1 q28 -3 66 -15 q30 51 66 135 l-205 0 l-98 -3 l-24 28 l95 -6 l228 0 q14 18 23.5 31 q9.5 13 17.5 15 q16 3 75 -39.5 q59 -42.5 59 -57.5 q-1 -14 -11.5 -17 q-10.5 -3 -35 -6 q-24.5 -3 -44 -10.5 q-19.5 -7.5 -119.5 -78.5 q11 -1 22 -4.5 q11 -3.5 12.5 -10.5 q1.5 -7 -29.5 -30 l0 -161 l75 0 q23 31 39.5 54.5 q16.5 23.5 28.5 23.5 q6 -1 33 -21.5 q27 -20.5 46 -42 q19 -21.5 17 -28 q-2 -6.5 -9 -6.5 l-230 0 l0 -366 q0 -59 -37 -73.5 q-37 -14.5 -75.5 -18.5 q-38.5 -4 -40.5 0 q-3 2 -3.5 15.5 q-0.5 13.5 -7 34.5 q-6.5 21 -50.5 40 l-26 11 q-11 4 -10 10.5 q1 6.5 13 5.5 l38 -4 l29 -4 q59 -5 59 45 l0 304 l-115 0 l-67 -3 l-20 29 l73 -6 l129 0 Z" /><glyph glyph-name="" unicode="&#x5b8c;" d="M81 264 l92 -5 l562 0 q64 91 75.5 93 q11.5 2 29.5 -11 q41 -32 67.5 -60 q26.5 -28 24.5 -35 q-2 -7 -11 -7 l-253 0 l-24 -26 l0 -221 q0 -24 8 -32.5 q8 -8.5 91 -7.5 q67 0 87 6.5 q20 6.5 40 29 q20 22.5 49 85.5 l11 24 q6 14 13 11.5 q7 -2.5 4 -15.5 l-9 -33 q-6 -19 -9 -46.5 q-3 -27.5 1 -45.5 q2 -14 8 -22 l13 -17 q6 -11 6.5 -25.5 q0.5 -14.5 -14.5 -29.5 q-16 -16 -52 -25.5 q-36 -9.5 -201 -9.5 q-65 -1 -96 6.5 q-31 7.5 -46 26 q-15 18.5 -15 57.5 l0 310 l-67 0 q26 -8 24 -16 q-2 -8 -24 -23 q-24 -95 -54 -153.5 q-30 -58.5 -63.5 -90 q-33.5 -31.5 -104 -68 q-70.5 -36.5 -162.5 -44.5 l-31 -3 q-10 -2 -9.5 5 q0.5 7 9.5 10 l28 9 q69 22 141.5 84 q72.5 62 91.5 141.5 q19 79.5 21 99.5 l4 49 l-153 0 l-78 -3 l-25 28 ZM497 587 q-14 4 -25 12 q-11 8 -16 38 l-5 42 q-5 34 -20 52 q-15 18 -23.5 22.5 q-8.5 4.5 -15.5 14 q-7 9.5 19 8.5 q52 -4 92 -13 q40 -9 67 -44.5 q27 -35.5 25 -65.5 q-4 -53 -59 -66 l252 0 q24 47 38 50 q16 2 70.5 -30 q54.5 -32 68 -50 q13.5 -18 10.5 -27.5 q-3 -9.5 -23 -13.5 q-9 -2 -29 -0.5 q-20 1.5 -35 0.5 q-38 -5 -88 -39 l-25 -17 q-8 -6 -14 -1.5 q-6 4.5 1 16.5 l13 24 q6 12 27 69 l-578 0 q5 -28 6 -59.5 q1 -31.5 -30.5 -66 q-31.5 -34.5 -75.5 -23.5 q-20 4 -34.5 20 q-14.5 16 -15 31 q-0.5 15 4.5 25 q6 14 31 33.5 q25 19.5 38 37 q13 17.5 16 57.5 q0 14 -1 22 q-1 8 2 15 q3 7 19 -10 q19 -23 35 -63 l278 0 ZM589 410 q54 82 66.5 84 q12.5 2 31.5 -11 q93 -67 88 -80 q-5 -13 -19 -13 l-423 0 l-78 -3 l-21 27 l83 -4 l272 0 Z" /><glyph glyph-name="" unicode="&#x5bb6;" d="M199 609 l261 0 q-11 7 -18 15.5 q-7 8.5 -8 31.5 l-1 28 q-2 30 -11.5 47 q-9.5 17 -21 25.5 q-11.5 8.5 -14.5 13 q-3 4.5 2 8.5 q0 0 40.5 0.5 q40.5 0.5 77 -19.5 q36.5 -20 45 -32.5 q8.5 -12.5 12.5 -32.5 q4 -20 1 -34 q-7 -32 -45 -51 l267 1 q31 46 43.5 48 q12.5 2 34.5 -11 q71 -44 85.5 -60.5 q14.5 -16.5 9.5 -27 q-5 -10.5 -23 -12.5 q-4 -1 -43.5 0 q-39.5 1 -111.5 -46 q20 -18 32.5 -32.5 q12.5 -14.5 9.5 -19.5 q-3 -5 -18 -5 l-249 0 q16 -8 14.5 -13.5 q-1.5 -5.5 -12.5 -7.5 l-31 -7 q-54 -36 -88 -55 q100 -58 123 -101 l14 -25 q104 79 160 163 l12 18 q7 11 31 -8 l36 -27 q17 -14 37.5 -35.5 q20.5 -21.5 17.5 -30.5 q-5 -13 -49 -4 q-64 -27 -137 -57 q9 -29 19 -51 q10 -22 67.5 -97.5 q57.5 -75.5 170.5 -104.5 l27 -6 q11 -3 11.5 -10 q0.5 -7 -13.5 -11 l-21 -7 q-12 -4 -35 -22.5 q-23 -18.5 -31 -42 q-8 -23.5 -21 -22.5 q-17 0 -82 64 q-65 64 -85 137 q-20 73 -34 165 q-39 -14 -76 -24 q7 -26 11 -44.5 q4 -18.5 10 -64.5 q6 -46 6 -93 q-2 -125 -50.5 -156.5 q-48.5 -31.5 -87 -37 q-38.5 -5.5 -44.5 0.5 q-3 2 -3.5 36.5 q-0.5 34.5 -64.5 56.5 l-36 12 q-10 3 -7 8.5 q3 5.5 13 5.5 l27 -2 q40 -3 72.5 -3.5 q32.5 -0.5 51 34.5 q18.5 35 22.5 83 q2 35 0 52 l-1 7 q-87 -69 -165.5 -112 q-78.5 -43 -225.5 -94 l-26 -9 q-13 -5 -15 1.5 q-2 6.5 10 13.5 l27 15 q105 58 215.5 148 q110.5 90 156.5 178 q-89 -63 -130.5 -88 q-41.5 -25 -115 -59.5 q-73.5 -34.5 -122.5 -49.5 l-28 -9 q-14 -5 -16.5 2 q-2.5 7 7.5 12 l26 13 q57 28 136 84 q79 56 118.5 96.5 q39.5 40.5 70.5 87.5 q-159 -88 -305 -130 l-31 -9 q-12 -4 -15 3.5 q-3 7.5 11 14.5 l18 9 q192 96 278 209 l-114 0 l-79 -3 l-18 28 l86 -6 l401 1 q50 75 63 74 q13 -1 46 -24 q14 33 27 75 l-587 0 q-1 -13 -2.5 -37 q-1.5 -24 -14 -43.5 q-12.5 -19.5 -42 -37 q-29.5 -17.5 -59 -10.5 q-29.5 7 -43.5 33 q-14 26 6 55 q5 7 10.5 11 q5.5 4 45.5 24 q40 20 44 78 q0 5 -1 17 q-1 12 12 6 q5 -4 14 -19.5 q9 -15.5 13 -23 q4 -7.5 12 -33.5 Z" /><glyph glyph-name="" unicode="&#x5e01;" d="M588 633 q9 -5 14 -14.5 q5 -9.5 -22 -22.5 l0 -146 l195 0 q26 45 34 48.5 q8 3.5 34 -8.5 l56 -27 q36 -22 37 -33 q0 -10 -28 -35 l0 -390 q0 -38 -9 -63 q-9 -25 -105 -32 q-19 -2 -27.5 2 q-8.5 4 -11.5 9.5 q-3 5.5 -8 25 q-5 19.5 -15.5 32.5 q-10.5 13 -30.5 21 l-28 10 l-25 10 q-12 4 -9 11.5 q3 7.5 19 5.5 l29 -4 q47 -7 68 -5 q25 1 29 9.5 q4 8.5 4 20.5 l0 372 l-208 0 l0 -408 l8 -148 q-3 -10 -12.5 -23 q-9.5 -13 -80.5 -10 q-16 0 -23 3.5 q-7 3.5 -13 14.5 l6 142 l0 429 l-187 0 l0 -390 l3 -90 q-3 -10 -8.5 -17 q-5.5 -7 -44.5 -16 q-39 -9 -51.5 0 q-12.5 9 -16.5 20 l6 129 l0 288 l-6 133 q2 2 4 2.5 q2 0.5 35 -9.5 l90 -30 l177 1 l0 177 q-178 -6 -303 0 l-70 3 q-16 0 -16 8.5 q0 8.5 17 10.5 l53 5 q214 20 348.5 46 q134.5 26 244.5 59 l17 5 l21 9 q3 0 6 0 q5 -1 72.5 -54 q67.5 -53 67.5 -62 q-1 -4 -5 -9 q-4 -5 -13 -5 l-42 0 q-121 0 -276 -11 Z" /><glyph glyph-name="" unicode="&#x6298;" d="M882 638 q-259 -16 -290 -18 q-1 -45 -1 -67 l-2 -88 l-1 -57 l236 0 q51 75 58.5 77 q7.5 2 19.5 -5 q11 -8 49 -41.5 q38 -33.5 33.5 -41.5 q-4.5 -8 -10.5 -8 l-140 0 l-1 -7 l-11 -11 l0 -390 l5 -103 q-10 -17 -34.5 -25 q-24.5 -8 -46.5 -5 q-27 2 -32.5 6.5 q-5.5 4.5 -7.5 11.5 l6 133 l0 390 l-124 0 q-2 -41 -4.5 -75.5 q-2.5 -34.5 -8 -81 q-5.5 -46.5 -22 -119 q-16.5 -72.5 -81.5 -135 q-65 -62.5 -102 -83.5 l-39 -23 q-8 -5 -18 -3.5 q-10 1.5 1 12.5 l12 11 l27 25 q13 12 45 57.5 q32 45.5 48 109.5 q16 64 21 114.5 q5 50.5 8.5 94 q3.5 43.5 4 62.5 q0.5 19 -0.5 113 q-1 94 -3 118 l-5 54 l-4 41 q-1 6 0.5 7.5 q1.5 1.5 17.5 -3.5 l119 -43 q119 40 182 92 l11 9 q13 10 17 10 q5 -1 40 -27 l31 -22 q28 -22 45.5 -39.5 q17.5 -17.5 11.5 -23 q-6 -5.5 -22 -4.5 l-38 1 ZM213 318 l0 193 l-112 0 l-52 -3 l-20 27 l56 -4 l128 0 l0 128 l-5 100 q7 3 21 2 q115 -14 120 -31 q4 -18 -29 -32 l-1 -167 l16 0 q30 41 41 53 q11 12 18 12 q4 -1 14 -10 l21 -21 l20 -21 q17 -17 15.5 -25 q-1.5 -8 -9.5 -8 l-136 0 l1 -157 q68 21 90 30 l36 14 q22 8 26 3.5 q4 -4.5 -2 -12.5 l-18 -12 l-25 -18 q-27 -19 -107 -74 l-1 -350 q-1 -23 -13.5 -48.5 q-12.5 -25.5 -102.5 -36.5 q-13 -2 -17 0 q-4 2 -6 6 q-2 4 -5.5 31.5 q-3.5 27.5 -59.5 49.5 l-26 10 q-9 3 -6.5 9 q2.5 6 7.5 6 l30 -2 q74 -5 83.5 2.5 q9.5 7.5 9.5 24.5 l0 234 q-56 -34 -89 -56 l-33 -22 l-12 -10 q-6 -3 -8 -1.5 q-2 1.5 -5 12.5 l-33 110 q-4 11 -3.5 12.5 q0.5 1.5 5.5 4.5 l31 6 l41 10 q0 0 62 18 l44 13 l0 0 Z" /><glyph glyph-name="" unicode="&#x65ad;" d="M549 -26 q10 36 17 68 q7 32 13.5 115 q6.5 83 7.5 132.5 q1 49.5 -1.5 172.5 q-2.5 123 -3.5 146 l-3 59 l-3 39 q0 4 1.5 6.5 q1.5 2.5 17.5 -3.5 l94 -39 q114 60 128 71 l23 18 l14 11 q2 0 6 0 q1 -1 21.5 -16 q20.5 -15 46.5 -37.5 q26 -22.5 34.5 -31.5 q8.5 -9 6 -15 q-2.5 -6 -16.5 -6 l-46 -3 l-111 -11 l-106 -10 l-1 -211 l145 0 q56 71 63 71.5 q7 0.5 21 -10.5 q56 -50 63.5 -59.5 q7.5 -9.5 5.5 -14.5 q-2 -5 -12 -5 l-74 0 q-7 -14 -21 -22 l0 -409 l6 -100 q-2 -12 -11.5 -26 q-9.5 -14 -53 -14.5 q-43.5 -0.5 -48.5 6.5 q-5 7 -6 20 l7 116 l0 429 l-87 0 q-2 -71 -5 -143 q-3 -72 -17.5 -152 q-14.5 -80 -39 -122.5 q-24.5 -42.5 -52.5 -74.5 q-28 -32 -50 -48 l-24 -18 q-10 -7 -14.5 -2.5 q-4.5 4.5 0.5 11.5 l18 25 q12 17 44 77 l-375 0 q-40 -46 -47 -47.5 q-7 -1.5 -24 11.5 q-46 32 -52.5 38.5 q-6.5 6.5 -6.5 13.5 q0 6 26 31 l0 609 l-6 100 q3 5 12 5 l29 -1 q7 -1 34 -5.5 q27 -4.5 43 -9 q16 -4.5 16.5 -10.5 q0.5 -6 -2.5 -11 q-5 -7 -27 -21 l0 -684 l263 0 q21 26 34.5 43 q13.5 17 19 16.5 q5.5 -0.5 11 -6 q5.5 -5.5 55.5 -62.5 ZM230 641 q17 -16 44 -45 q27 -29 24 -61.5 q-3 -32.5 -18.5 -49.5 q-15.5 -17 -36 -16.5 q-20.5 0.5 -31 15.5 q-10.5 15 -9.5 35 q0 7 5.5 32.5 q5.5 25.5 5.5 47.5 q-1 27 -6.5 37 q-5.5 10 -6 13 q-0.5 3 2.5 7.5 q3 4.5 14 -4.5 l12 -11 ZM170 437 l42 -5 l104 0 l0 229 l-6 100 q3 4 11 4 q80 -5 96.5 -12.5 q16.5 -7.5 17 -12.5 q0.5 -5 -2.5 -10 q-5 -7 -27 -21 l0 -268 q11 31 15 43 q4 12 19.5 69 q15.5 57 18.5 73 l6 39 l0 11 q2 7 16 1 l30 -10 q7 -3 38.5 -21.5 q31.5 -18.5 27.5 -28.5 q-2 -4 -27 -13 q-58 -81 -124 -171 l40 -1 q39 53 46.5 53.5 q7.5 0.5 20.5 -11.5 q46 -49 44.5 -54.5 q-1.5 -5.5 -15.5 -5.5 l-156 0 l0 -57 q73 -19 120 -59 q47 -40 46 -87 q-1 -27 -16.5 -43.5 q-15.5 -16.5 -38.5 -17 q-23 -0.5 -39 22.5 q-7 9 -10 24 l-5 33 q-3 15 -13.5 44.5 q-10.5 29.5 -23.5 42.5 l-20 21 l0 -221 l6 -80 q-2 -11 -10 -20 q-8 -9 -45.5 -10.5 q-37.5 -1.5 -42 4 q-4.5 5.5 -5.5 16.5 l8 92 l0 113 q-64 -60 -91 -79 l-25 -18 q-9 -7 -13.5 -3 q-4.5 4 -0.5 10 l17 27 q41 65 62 124 q21 59 36 122 l-69 -1 l-38 -3 l-24 26 Z" /><glyph glyph-name="" unicode="&#x65b0;" d="M28 394 l56 -5 l228 0 q7 26 16 57 q9 31 12.5 45.5 q3.5 14.5 9.5 48.5 l6 36 q2 12 3.5 15 q1.5 3 19.5 -4 q14 -7 61.5 -23.5 q47.5 -16.5 45.5 -30.5 q-2 -8 -35 -20 q-48 -63 -94 -124 l67 0 q25 27 37 45.5 q12 18.5 17.5 19 q5.5 0.5 15.5 -6.5 q18 -15 42.5 -41 q24.5 -26 22.5 -31 q-2 -5 -10 -5 l-251 0 q56 -16 62.5 -20.5 q6.5 -4.5 6 -12 q-0.5 -7.5 -20.5 -15.5 l0 -75 l66 0 q23 28 34.5 42 q11.5 14 17 14.5 q5.5 0.5 16.5 -6.5 q16 -13 41 -36 q25 -23 23 -28 q-2 -5 -10 -5 l-188 0 l0 -298 q0 -33 -16.5 -56 q-16.5 -23 -69.5 -24.5 q-53 -1.5 -55 2.5 q-2 1 -1.5 11.5 q0.5 10.5 -4.5 25.5 q-13 32 -46 47 l-21 9 q-14 5 -11 10 q3 5 11 5 l28 -3 l44 -5 q39 -4 39 27 l0 249 l-132 0 l-42 -3 l-27 27 l51 -5 l150 0 l0 123 l-145 0 l-42 -3 l-28 27 ZM35 618 l58 -6 l165 0 q-10 7 -18 15.5 q-8 8.5 -10 30.5 l-1 50 q-2 17 -7 28 q-5 11 -11 18 l-13 10 q-7 4 -6.5 10 q0.5 6 22.5 4 l23 -3 q96 -20 106.5 -54.5 q10.5 -34.5 9.5 -60.5 q-1 -26 -37 -48 l79 0 q28 34 42 51.5 q14 17.5 21 18.5 q7 1 22 -10 q6 -6 32 -29 q26 -23 33.5 -31.5 q7.5 -8.5 5.5 -14 q-2 -5.5 -9 -5.5 l-435 0 l-42 -2 l-30 28 ZM210 141 q-42 -78 -61.5 -109.5 q-19.5 -31.5 -61.5 -82.5 l-22 -27 q-7 -9 -13 -6.5 q-6 2.5 -1 14.5 l15 40 q14 36 25 99 q11 63 13 82 l3 36 l0 11 q3 6 19 1 l33 -7 q31 -8 53.5 -17.5 q22.5 -9.5 22.5 -14.5 q-1 -10 -25 -19 ZM174 570 q102 -44 96 -112 q-3 -23 -21 -42.5 q-18 -19.5 -45.5 -17 q-27.5 2.5 -36.5 20 q-9 17.5 -8 35.5 l5 43 q0 13 -2 31 q-3 13 -6 20 l-13 21 q-4 12 13 7 l18 -6 ZM397 172 q24 -6 48 -14.5 q24 -8.5 47 -34 q23 -25.5 23.5 -52.5 q0.5 -27 -13.5 -46.5 q-14 -19.5 -42.5 -22 q-28.5 -2.5 -43.5 20.5 q-8 10 -10.5 34.5 q-2.5 24.5 -7.5 45 q-5 20.5 -13.5 32.5 q-8.5 12 -16.5 21 q-8 9 -10.5 16.5 q-2.5 7.5 15.5 4.5 l24 -5 ZM671 651 q60 25 128 73 l23 16 l13 11 q2 0 6 0 q6 -2 54 -38 q48 -36 56 -47 q8 -11 6 -16.5 q-2 -5.5 -16 -6.5 l-49 -4 l-116 -11 l-98 -9 l-1 -221 l164 0 q49 70 64 70 q4 -1 15 -11 q11 -10 42 -36 q31 -26 27.5 -33.5 q-3.5 -7.5 -13.5 -7.5 l-77 0 q-7 -14 -21 -22 l0 -377 l6 -101 q-2 -12 -11 -25 q-9 -13 -53 -14 q-44 -1 -49 5.5 q-5 6.5 -6 20.5 l7 115 l0 398 l-97 0 q-2 -63 -4.5 -128 q-2.5 -65 -19 -135 q-16.5 -70 -49.5 -110 q-33 -40 -77.5 -74 q-44.5 -34 -63.5 -44 l-30 -16 q-12 -7 -16 -2 q-4 5 3 11 l36 31 q26 22 58 71 q32 49 46.5 109.5 q14.5 60.5 14.5 197.5 l-1 215 q-1 12 -2 58 l-3 82 l-3 39 q0 4 2 6.5 q2 2.5 18 -3.5 l87 -37 Z" /><glyph glyph-name="" unicode="&#x65f6;" d="M295 66 l-131 0 l0 -46 q0 -19 -3 -24.5 q-3 -5.5 -23.5 -17.5 q-20.5 -12 -62.5 -9 q-12 0 -17 3 q-5 3 -9 11 l7 162 l0 406 l-6 118 q3 5 12 3 l108 -36 l110 0 l22 34 q6 9 15 11 q9 2 31 -8 l32 -15 q52 -28 54 -40 q1 -14 -28 -41 l0 -405 l6 -133 q-26 -36 -91 -33 q-26 0 -26 23 l0 37 ZM163 86 l132 0 l0 257 l-131 0 l-1 -257 ZM164 362 l132 0 l-1 254 l-131 0 l0 -254 ZM712 485 l-1 134 l-6 142 q3 8 16 6 q7 -2 68 -6.5 q61 -4.5 68 -21.5 q4 -14 -30 -39 l0 -215 l8 0 q17 22 29 40.5 q12 18.5 17.5 26 q5.5 7.5 14 9 q8.5 1.5 30.5 -14.5 l29 -22 q49 -45 45 -52 q-4 -7 -8 -7 l-165 0 l0 -549 q0 -35 -25 -48.5 q-25 -13.5 -68 -20.5 q-43 -7 -49 2 q-3 3 -8.5 35.5 q-5.5 32.5 -59.5 55.5 l-32 13 l-20 5 q-6 2 -6.5 6 q-0.5 4 6.5 8 l20 -2 l37 -1 q6 -1 25 -2.5 q19 -1.5 30 -0.5 q22 1 28.5 11.5 q6.5 10.5 6.5 36.5 l-1 451 l-215 0 l-58 -2 l-24 29 l74 -7 l224 0 ZM526 392 q76 -49 98 -86 q22 -37 22.5 -65.5 q0.5 -28.5 -4.5 -42.5 q-8 -21 -29 -40.5 q-21 -19.5 -49 -18.5 q-24 0 -41 16 q-17 16 -16 38 q0 8 3 23 l8 38 q3 21 3 37 q-1 7 -5 30 q-4 23 -7.5 35.5 q-3.5 12.5 -12 25.5 q-8.5 13 -9 20.5 q-0.5 7.5 9.5 3.5 l29 -14 Z" /><glyph glyph-name="" unicode="&#x672c;" d="M329 520 l-211 0 l-42 -3 l-29 29 l67 -6 l315 0 l0 109 l-6 118 q0 7 1.5 8.5 q1.5 1.5 9.5 1.5 q134 -12 140 -31 q3 -15 -30 -33 l0 -173 l222 0 q46 59 56 70.5 q10 11.5 17.5 12 q7.5 0.5 23.5 -11.5 q60 -50 72.5 -65.5 q12.5 -15.5 10.5 -20.5 q-2 -5 -10 -5 l-362 0 q51 -162 146 -247.5 q95 -85.5 152.5 -112 q57.5 -26.5 71.5 -29.5 l29 -8 q11 -4 10.5 -12 q-0.5 -8 -8.5 -8 l-16 -1 q-41 -3 -60 -22.5 q-19 -19.5 -35 -44.5 q-16 -25 -21 -25 q-14 -1 -101.5 80.5 q-87.5 81.5 -128.5 194 q-41 112.5 -60 235.5 l-9 0 l0 -423 l33 0 q51 62 60 63 q9 1 20 -6 q26 -19 46 -42.5 q20 -23.5 18 -28.5 q-2 -5 -9 -5 l-168 -2 l0 -73 l5 -132 q-4 -10 -15.5 -21.5 q-11.5 -11.5 -51.5 -12 q-40 -0.5 -47.5 6 q-7.5 6.5 -11.5 21.5 l6 138 l0 75 l-122 0 l-42 -3 l-30 28 l67 -6 l127 0 l0 318 q-44 -84 -76 -137.5 q-32 -53.5 -107 -136.5 q-75 -83 -153 -128 l-26 -14 q-14 -8 -17.5 -3.5 q-3.5 4.5 6.5 14.5 l25 24 q55 53 111.5 147 q56.5 94 85 174.5 q28.5 80.5 51.5 164.5 Z" /><glyph glyph-name="" unicode="&#x6b63;" d="M216 -84 l0 369 l-6 142 q3 7 17 5 q7 -2 71.5 -6.5 q64.5 -4.5 68.5 -27.5 q2 -14 -31 -33 l0 -449 l131 0 l0 718 l-318 0 l-58 -3 l-24 29 l74 -7 l615 0 q10 14 24.5 34 q14.5 20 26 36.5 q11.5 16.5 19.5 17 q8 0.5 27 -14.5 l27 -20 q3 -3 28 -30 q25 -27 23 -34.5 q-2 -7.5 -11 -7.5 l-308 0 q-1 -9 -3.5 -15 q-2.5 -6 -18.5 -14 l0 -296 l115 0 q56 85 65.5 85.5 q9.5 0.5 27.5 -13.5 q57 -47 70 -63.5 q13 -16.5 10 -22 q-3 -5.5 -16 -5.5 l-272 0 l0 -374 l203 0 q14 19 30.5 40.5 q16.5 21.5 28 38.5 q11.5 17 21.5 17 q10 -1 49 -40 q39 -39 48 -50.5 q9 -11.5 7 -18.5 q-2 -7 -12 -7 l-841 0 l-57 -3 l-24 30 l73 -7 l100 0 Z" /><glyph glyph-name="" unicode="&#x7248;" d="M207 454 l55 0 l0 165 l-6 116 q2 7 12 7 q113 -11 120 -22.5 q7 -11.5 4 -18.5 q-2 -4 -26 -21 l0 -226 q33 46 40.5 46.5 q7.5 0.5 17.5 -8.5 l16 -18 q17 -20 21 -26.5 q4 -6.5 2 -10.5 q-2 -4 -8 -4 l-248 0 l-1 -133 l65 0 q26 38 33.5 40 q7.5 2 22.5 -5 q60 -31 74 -39 q14 -8 15 -14 q1 -12 -31 -36 l0 -257 l6 -94 q-2 -11 -8.5 -22 q-6.5 -11 -53 -13.5 q-46.5 -2.5 -51 5 q-4.5 7.5 -5.5 18.5 l6 103 l0 295 l-75 0 q-3 -49 -6.5 -98.5 q-3.5 -49.5 -21.5 -108.5 q-18 -59 -43.5 -99 q-25.5 -40 -51.5 -75 l-30 -40 q-9 -12 -14 -7.5 q-5 4.5 -2 12.5 l22 53 q39 93 47.5 172 q8.5 79 7.5 195 q-3 226 -6 299 l-4 89 l-4 31 q3 7 19 6 q121 -15 117 -37 q-3 -12 -27 -21 l0 -198 ZM588 651 q150 34 219 69 l30 15 l11 8 q2 0 6 0 q5 -2 48 -47 l39 -42 q20 -22 17 -29 q-3 -7 -12 -6 l-57 2 l-183 1 l-131 2 l-3 -165 l205 0 q35 39 42 40.5 q7 1.5 21 -7.5 l49 -31 q50 -34 48 -47 q-2 -11 -41 -35 q-11 -32 -16 -47 l-33 -101 q-26 -71 -66 -141 q75 -69 177 -103 l26 -9 q10 -4 9.5 -9 q-0.5 -5 -7.5 -7 l-36 -13 q-19 -7 -42.5 -26.5 q-23.5 -19.5 -33 -38.5 q-9.5 -19 -18.5 -15 q-6 2 -15 11 l-31 27 q-32 27 -100 100 q-87 -62 -156 -93 q-69 -31 -101 -39 l-40 -10 q-13 -4 -13.5 4 q-0.5 8 10.5 14 l24 12 q130 65 228 185 q-13 29 -24 60 q-11 31 -18.5 96.5 q-7.5 65.5 -8.5 134.5 l-2 68 l-37 1 q-3 -100 -7 -185.5 q-4 -85.5 -22.5 -148 q-18.5 -62.5 -52 -109 q-33.5 -46.5 -61.5 -68.5 l-22 -17 q-7 -5 -11 -2 q-4 3 1 12 l16 27 q31 52 41.5 110 q10.5 58 15 129 q4.5 71 5 144.5 q0.5 73.5 -2 147 q-2.5 73.5 -3.5 100.5 l-5 85 l-3 34 q1 2 2 2.5 q1 0.5 16 -5.5 l109 -45 ZM632 439 q2 -25 6 -55 q4 -30 21 -93 q17 -63 31 -84 l21 -36 q21 50 41 122.5 q20 72.5 25 103.5 l6 42 l-151 0 Z" /><glyph glyph-name="" unicode="&#x7279;" d="M592 408 l0 163 l-96 0 l-54 -3 l-25 29 l69 -6 l106 0 l0 70 l-4 103 q4 1 13 1 q109 -9 120.5 -18 q11.5 -9 12.5 -16 q0 -13 -30 -33 l0 -107 l87 0 q38 52 48 64 q10 12 18 13 q5 0 17.5 -8 q12.5 -8 27.5 -22 l33 -33 q22 -21 17.5 -27.5 q-4.5 -6.5 -17.5 -6.5 l-231 0 l0 -163 l132 0 q16 21 39.5 49 q23.5 28 29.5 28.5 q6 0.5 18 -8.5 q27 -22 52 -48.5 q25 -26.5 21 -35.5 q-4 -9 -18 -8 l-146 1 q6 -16 4 -17 l-15 -12 l-1 -121 q53 73 61.5 75 q8.5 2 23.5 -8 q18 -14 39.5 -35 q21.5 -21 29 -31 q7.5 -10 5.5 -15 q-2 -5 -12 -5 l-146 0 l0 -280 q0 -22 -7 -40.5 q-7 -18.5 -51.5 -31 q-44.5 -12.5 -80.5 -14.5 q-10 -1 -14 1 q-4 2 -6 7 l-6 33 q-3 8 -15 23.5 q-12 15.5 -35 25.5 l-39 15 q-6 2 -9 5.5 q-3 3.5 -2 9 q1 5.5 18 4.5 l42 -4 q82 -8 89 1 q7 9 7 20 l0 225 l-262 0 l-54 -3 l-26 28 l70 -6 l272 0 l0 152 l-288 0 l-54 -3 l-26 29 l70 -6 l178 0 ZM495 179 q118 -32 124.5 -75 q6.5 -43 2.5 -57 q-13 -43 -64 -46 q-19 -1 -30.5 4.5 q-11.5 5.5 -17 12 q-5.5 6.5 -7.5 22.5 l-3 46 q-2 13 -5 23 q-3 10 -10.5 25 q-7.5 15 -11.5 20 l-17 16 q-15 21 13 15 l26 -6 ZM171 504 q-19 -62 -34 -93.5 q-15 -31.5 -34 -63.5 l-21 -35 q-21 -35 -26 -34 q-5 1 -5.5 8 q-0.5 7 7.5 46 l9 49 q5 27 6.5 53 q1.5 26 4.5 78 q3 52 3.5 69 q0.5 17 0.5 33 l-1 30 l-2 15 q2 4 11 5 q4 0 39 -6 l49 -14 q33 -9 36 -21 q2 -15 -18 -22 q-8 -41 -19 -78 l38 0 l0 139 l-4 103 q4 3 13 2 l30 -3 q99 -11 103 -32 q2 -16 -32 -29 l0 -181 q19 24 36.5 48 q17.5 24 24.5 25.5 q7 1.5 19 -5.5 q11 -8 36 -33 q25 -25 31.5 -34.5 q6.5 -9.5 4 -14 q-2.5 -4.5 -5.5 -4.5 l-146 0 l0 -166 q33 12 59.5 23 q26.5 11 32.5 13 l29 10 q9 3 13 -1.5 q4 -4.5 -7 -13.5 l-26 -21 l-53 -41 l-48 -40 l0 -277 l4 -115 q-16 -39 -84 -39 q-20 -1 -26 3.5 q-6 4.5 -10 10.5 l6 137 l0 213 q-56 -38 -70 -47 q-14 -9 -20 -14 l-23 -18 q-7 -6 -10.5 -5.5 q-3.5 0.5 -11.5 20.5 l-38 90 q-6 13 -7 18 q-1 5 -0.5 6 q0.5 1 7.5 3 l25 5 q39 7 43 8 q4 1 105 34 l0 204 l-44 0 Z" /><glyph glyph-name="" unicode="&#x72ec;" d="M617 -10 l0 216 l-87 0 l0 -53 q0 -16 -5.5 -24 q-5.5 -8 -27.5 -14 q-22 -6 -42 -5 q-19 0 -24 5.5 q-5 5.5 -7 14.5 l6 115 l0 233 l-5 105 q0 4 1.5 5.5 q1.5 1.5 10.5 -1.5 l99 -40 l81 0 l0 87 l-5 115 q2 3 9 4 q20 0 77.5 -7 q57.5 -7 60.5 -18 q1 -10 -33 -31 l0 -150 l97 0 q27 38 36 40 q11 2 64 -26 q53 -28 54 -35 q0 -12 -34 -31 l0 -213 l4 -101 q-6 -22 -34.5 -30 q-28.5 -8 -50.5 -6 q-32 1 -32 25 l0 36 l-104 0 l0 -211 q77 5 130 6 q-8 26 -20.5 51 q-12.5 25 -37.5 44.5 q-25 19.5 -24 25 q1 5.5 7 6.5 q4 0 76 -27 q72 -27 100.5 -82 q28.5 -55 28.5 -88 q-1 -28 -16 -50.5 q-15 -22.5 -44.5 -24.5 q-29.5 -2 -43.5 11 q-13 11 -17 35 l-2 27 l-3 45 q-66 -13 -190 -44 q-124 -31 -140 -36 l-84 -31 l-18 -7 q-6 0 -7 5 l-44 108 q-6 13 -3.5 16 q2.5 3 11.5 4 l38 -3 l80 -2 q39 -1 114 6 ZM530 226 l87 0 l0 302 l-87 0 l0 -302 ZM726 226 l104 0 l0 302 l-104 0 l0 -302 ZM238 528 q-78 -51 -155 -71 l-26 -7 q-12 -4 -13.5 2 q-1.5 6 10.5 14 l24 14 q74 43 133 107 q-40 47 -98 87 l-18 12 q-10 6 -8 12.5 q2 6.5 15 2.5 l29 -12 q17 -8 55 -29.5 q38 -21.5 58 -36.5 q50 53 71 87 l15 24 q5 9 16 6 q21 -8 75.5 -39 q54.5 -31 54 -41.5 q-0.5 -10.5 -26.5 -12.5 l-31 -3 q-95 -65 -117 -81 q49 -80 60 -135 q11 -55 15.5 -92 q4.5 -37 6 -67 q1.5 -30 2 -57 q0.5 -27 -0.5 -61 q-6 -131 -25 -190.5 q-19 -59.5 -72 -86 q-53 -26.5 -87 -23.5 q-11 0 -14.5 4 q-3.5 4 -3.5 9 l-1 15 q-2 15 -15.5 32 q-13.5 17 -37.5 27 l-23 9 q-11 4 -9.5 11 q1.5 7 12.5 7 l32 -3 q18 -2 48 -1 q48 1 64 27.5 q16 26.5 20.5 58 q4.5 31.5 7.5 80.5 q3 49 3 71 l-1 99 q-94 -132 -181 -194 l-38 -27 q-9 -7 -13 -2 q-4 5 2 13 l21 27 q48 62 88.5 139.5 q40.5 77.5 57.5 125.5 q17 48 30 98 q-5 26 -11 51 Z" /><glyph glyph-name="" unicode="&#x7545;" d="M179 568 l0 60 l-6 142 q5 5 16 4 q7 -1 56.5 -5.5 q49.5 -4.5 54.5 -18.5 q3 -14 -27 -33 l0 -149 l31 0 l32 36 q5 5 14 6.5 q9 1.5 56 -24 q47 -25.5 48 -34.5 q0 -10 -30 -35 l0 -245 l4 -99 q-16 -31 -69 -33 q-38 -3 -38 20 l0 39 l-48 0 l0 -217 l6 -111 q-15 -31 -77 -31 q-16 -1 -22 3 q-6 4 -9 10 l8 153 l0 193 l-46 0 l0 -27 q0 -31 -6 -46 q-6 -15 -41.5 -16.5 q-35.5 -1.5 -41 3.5 q-5.5 5 -7.5 16 l5 133 l0 234 l-4 103 q1 4 3 6 q2 2 18 -4 l79 -33 l41 0 ZM133 218 l46 0 l0 161 l-46 0 l0 -161 ZM133 398 l46 0 l0 151 l-46 0 l0 -151 ZM273 218 l48 0 l0 158 l-48 1 l0 -159 ZM273 398 l48 0 l0 151 l-48 0 l0 -151 ZM488 423 q111 105 206 245 l-184 0 l-35 -1 l-24 24 l55 -3 l175 0 l24 28 q8 10 14.5 11.5 q6.5 1.5 25.5 -7.5 l24 -11 q32 -16 54 -34 q22 -18 21 -26 q-3 -16 -38 -23 q-36 -37 -52 -55 l-75 -90 l-59 -68 l-41 -48 l257 0 l20 30 q6 10 12.5 11.5 q6.5 1.5 24.5 -7.5 q61 -36 75.5 -47 q14.5 -11 14.5 -18 q-1 -9 -29 -31 q-5 -51 -8.5 -82.5 q-3.5 -31.5 -14 -97.5 q-10.5 -66 -24.5 -130.5 q-14 -64.5 -50 -103.5 q-36 -39 -93 -41 q-57 -2 -59 0 q-3 1 -5 6 l-6 35 q-6 25 -30 42 l-22 15 l-12 6 q-23 16 13 13 l27 -3 q70 -8 95 8 q25 16 34.5 57 q9.5 41 21.5 107 q12 66 16.5 97 q4.5 31 7.5 68 l3 46 l-40 0 q16 -6 21 -13 q5 -7 3 -8 l-16 -13 q-11 -26 -25.5 -61 q-14.5 -35 -38.5 -87.5 q-24 -52.5 -72 -115.5 q-48 -63 -95 -93 q-47 -30 -95 -50 q-48 -20 -75 -26 l-54 -13 q-13 -4 -16 -1 q-3 3 -2.5 6 q0.5 3 4.5 5 l53 24 q24 10 95 62 q71 52 117.5 137 q46.5 85 65.5 136 q19 51 25 80 l6 31 l-24 0 q12 -5 11.5 -12 q-0.5 -7 -27.5 -19 q-35 -68 -67.5 -119.5 q-32.5 -51.5 -64.5 -80 q-32 -28.5 -67.5 -55 q-35.5 -26.5 -54.5 -34.5 l-49 -22 q-31 -13 -36.5 -11.5 q-5.5 1.5 -6 4.5 q-0.5 3 1.5 6 l27 19 l24 21 q29 25 70.5 77.5 q41.5 52.5 68.5 107 q27 54.5 48 118.5 q-27 -30 -37 -30.5 q-10 -0.5 -26 17.5 q-46 47 -53 57.5 q-7 10.5 -5 16.5 q1 5 46 17 Z" /><glyph glyph-name="" unicode="&#x770b;" d="M328 392 l-184 0 l-76 -3 l-18 28 l84 -6 l205 0 q3 8 15 39 q12 31 14 37 l6 21 l-139 0 l-100 -3 l-24 28 l106 -6 l163 0 q12 36 24 103 q-55 -3 -164.5 -5.5 q-109.5 -2.5 -147.5 0.5 l-29 2 q-11 0 -10.5 7 q0.5 7 12.5 9 l33 3 q115 10 288 38.5 q173 28.5 304 76.5 l22 8 q22 8 25.5 8.5 q3.5 0.5 18.5 -11.5 q7 -6 34 -25 q27 -19 62.5 -46.5 q35.5 -27.5 32.5 -34.5 q-3 -7 -13 -7 l-27 -1 q-48 -2 -299 -18 q30 -10 34 -15.5 q4 -5.5 4.5 -11 q0.5 -5.5 -11.5 -9.5 l-28 -11 q-11 -32 -23 -60 l169 0 q24 31 38.5 50.5 q14.5 19.5 23 20.5 q8.5 1 25.5 -8 q23 -15 54.5 -41.5 q31.5 -26.5 29.5 -33.5 q-2 -7 -12 -7 l-335 0 q-22 -51 -42 -97 l350 0 q26 34 41 54.5 q15 20.5 24 21.5 q5 0 20 -11 q15 -11 37.5 -31 q22.5 -20 34.5 -29 q12 -9 9 -16.5 q-3 -7.5 -8 -7.5 l-517 0 q-22 -37 -43 -71 l25 -20 l262 0 q29 40 33 41.5 q4 1.5 25 -6.5 l43 -17 q10 -5 36 -20.5 q26 -15.5 27 -20.5 q1 -10 -28 -30 l0 -269 l4 -101 q-7 -14 -19.5 -23 q-12.5 -9 -44 -11 q-31.5 -2 -43.5 0 q-21 3 -21 19 l0 44 l-277 0 l0 -38 q0 -13 -13 -21 q-13 -8 -41 -9 l-32 -2 q-27 -1 -32 6 q-5 7 -6 15 l6 118 l0 229 q-111 -118 -244 -184 l-30 -15 q-14 -6 -16.5 0.5 q-2.5 6.5 6.5 14.5 l36 29 q48 39 126.5 137 q78.5 98 124.5 205 ZM720 -73 l0 107 l-277 0 l0 -107 l277 0 ZM720 53 l0 106 l-277 0 l0 -106 l277 0 ZM443 178 l277 0 l0 104 l-277 0 l0 -104 Z" /><glyph glyph-name="" unicode="&#x795e;" d="M267 526 l-143 0 l-69 -4 l-19 29 l78 -6 l151 0 q17 28 21.5 29.5 q4.5 1.5 17.5 -2.5 q107 -42 120 -54 q13 -12 13 -19 q-1 -12 -33 -22 q-53 -48 -107 -102 q19 -12 17.5 -21 q-1.5 -9 -20.5 -17 q151 -25 154 -74 q3 -49 -5 -64 q-18 -35 -49.5 -35.5 q-31.5 -0.5 -44.5 12.5 q-7 5 -10 12.5 q-3 7.5 -5.5 28.5 q-2.5 21 -7 39.5 q-4.5 18.5 -10 30 q-5.5 11.5 -23.5 32.5 l0 -352 l4 -98 q-2 -15 -11 -26.5 q-9 -11.5 -52.5 -14 q-43.5 -2.5 -49 5 q-5.5 7.5 -6.5 17.5 l7 121 l0 296 q-53 -51 -112 -85 l-27 -16 q-10 -6 -15 -1.5 q-5 4.5 4 16.5 l17 19 q93 104 145 193 q52 89 70 132 ZM327 659 q-2 -30 -24 -52 q-22 -22 -57 -19 q-39 2 -48 24 q-9 22 -7 44 q2 22 2.5 29.5 q0.5 7.5 -1.5 18.5 q-6 24 -19.5 42 q-13.5 18 -12.5 20 q0 6 11 7 q17 0 71 -16.5 q54 -16.5 69.5 -49 q15.5 -32.5 15.5 -48.5 ZM851 143 l-84 0 l0 -152 l6 -137 q-4 -12 -11.5 -19.5 q-7.5 -7.5 -39.5 -10.5 q-32 -3 -46 0 q-19 3 -21 18 l7 142 l0 159 l-85 0 l0 -38 q0 -33 -75 -30 q-18 0 -26 5.5 q-8 5.5 -11 20.5 l6 85 l0 320 l-6 87 q3 3 5.5 3.5 q2.5 0.5 18.5 -5.5 l93 -40 l80 0 l0 86 l-7 132 q5 5 18 3 q15 -3 50 -4.5 q35 -1.5 52.5 -8.5 q17.5 -7 18.5 -13 q2 -14 -27 -25 l1 -170 l69 0 q25 43 32 45 q12 2 67 -28 q55 -30 57 -38 q1 -12 -32 -33 l0 -280 l6 -91 q-3 -11 -8.5 -17.5 q-5.5 -6.5 -39 -12 q-33.5 -5.5 -49.5 -2.5 q-13 2 -16 7 q-3 5 -3 15 l0 27 ZM577 162 l85 0 l0 172 l-85 0 l0 -172 ZM577 531 l0 -178 l85 0 l0 178 l-85 0 ZM767 162 l84 0 l0 172 l-84 0 l0 -172 ZM766 353 l85 0 l0 178 l-84 0 l-1 -178 Z" /><glyph glyph-name="" unicode="&#x798f;" d="M257 510 l-120 0 l-70 -3 l-18 29 l81 -6 l126 0 q22 36 31.5 39.5 q9.5 3.5 33.5 -6.5 l42 -17 q31 -14 51.5 -30 q20.5 -16 20.5 -22 q-2 -18 -42 -21 q-43 -46 -81 -84 q7 -6 12 -11.5 q5 -5.5 4 -11.5 q-1 -6 -22 -15 q18 -3 31.5 -5.5 q13.5 -2.5 57.5 -19.5 q44 -17 46 -62.5 q2 -45.5 -14 -63.5 q-16 -18 -43 -20.5 q-27 -2.5 -37 11 q-10 13.5 -11.5 26 q-1.5 12.5 0.5 24.5 l3 27 q0 18 -6.5 32.5 q-6.5 14.5 -24.5 33.5 l0 -350 l6 -108 q-4 -12 -13 -22 q-9 -10 -54.5 -14 q-45.5 -4 -54.5 18 l8 129 l0 284 q-82 -69 -121 -91 l-21 -12 q-15 -9 -18 -2 q-3 7 6 18 l21 23 q63 69 112.5 149.5 q49.5 80.5 77.5 153.5 ZM337 671 q0 -30 -15.5 -48 q-15.5 -18 -40 -24.5 q-24.5 -6.5 -41.5 0.5 q-19 7 -26 20.5 q-7 13.5 -8 33.5 l-3 33 q-4 29 -12.5 47.5 q-8.5 18.5 -15.5 26.5 l-12 12 q-3 3 -2 7 q1 4 14 3 q46 -5 90 -22.5 q44 -17.5 57.5 -44 q13.5 -26.5 14.5 -44.5 ZM426 684 l77 -6 l320 0 q23 34 38 54 q15 20 23.5 20.5 q8.5 0.5 25.5 -11.5 q86 -66 80 -74.5 q-6 -8.5 -14 -8.5 l-458 0 l-70 -2 l-22 28 ZM853 -81 l-291 0 l0 -47 q0 -33 -76 -32 q-23 0 -29 5 q-6 5 -9 18 l6 116 l0 212 l-6 107 q6 7 21 2 l100 -39 l272 0 q24 35 30 37 q6 2 23 -4 q90 -38 94 -54 q2 -15 -26 -29 l0 -257 l5 -81 q-13 -25 -58 -28 q-41 -3 -48.5 6.5 q-7.5 9.5 -7.5 20.5 l0 47 ZM562 -61 l94 0 l0 142 l-94 0 l0 -142 ZM562 101 l94 0 l0 140 l-94 0 l0 -140 ZM756 -61 l97 0 l0 142 l-97 0 l0 -142 ZM756 101 l97 0 l0 140 l-82 0 l-15 -18 l0 -122 ZM791 380 l-177 0 l0 -22 q0 -7 -8.5 -16 q-8.5 -9 -47 -12 q-38.5 -3 -45.5 2.5 q-7 5.5 -10 14.5 l6 87 l0 93 l-5 72 q5 5 23 -2 l92 -37 l161 0 q16 37 25.5 42 q9.5 5 34.5 -6 q73 -36 81.5 -43.5 q8.5 -7.5 9.5 -12.5 q0 -11 -28 -24 l0 -92 l4 -54 q-2 -11 -7.5 -19 q-5.5 -8 -35 -13.5 q-29.5 -5.5 -48.5 -3.5 q-17 0 -21 6 q-4 6 -4 19 l0 21 ZM614 400 l176 0 l1 140 l-177 0 l0 -140 Z" /><glyph glyph-name="" unicode="&#x7cbe;" d="M185 411 l-71 0 l-52 -3 l-24 29 l66 -6 l96 -1 l0 213 l-6 115 q4 4 16 3 q2 -1 24.5 -2 q22.5 -1 53 -7 q30.5 -6 34.5 -14 q5 -16 -25 -29 l0 -189 q10 17 13.5 24 q3.5 7 17.5 40 q14 33 17 41 l9 29 q4 15 7 18 q3 3 14 -4 q5 -5 48 -30 q43 -25 34 -42 q-4 -7 -30 -8 q-18 -14 -24.5 -19.5 q-6.5 -5.5 -29.5 -26.5 q-23 -21 -76 -66 l0 -46 l25 0 q38 55 47 57 q9 2 22 -6 l37 -36 q23 -22 19.5 -28 q-3.5 -6 -11.5 -6 l-139 0 l0 -108 q24 -7 50 -14.5 q26 -7.5 52 -23.5 q26 -16 37.5 -46 q11.5 -30 -1 -56 q-12.5 -26 -41.5 -30 q-29 -4 -42 9.5 q-13 13.5 -15 26 q-2 12.5 -3.5 37.5 q-1.5 25 -7.5 39.5 q-6 14.5 -29 43.5 l0 -298 l4 -114 q-12 -30 -71 -30 q-19 -1 -25.5 4 q-6.5 5 -10.5 12 l6 120 l0 190 q-48 -67 -120 -146 l-21 -23 q-8 -8 -13.5 -2.5 q-5.5 5.5 0.5 16.5 l16 30 q55 104 81 192.5 q26 88.5 42 170.5 ZM83 641 q22 -15 41.5 -29.5 q19.5 -14.5 36.5 -40.5 q17 -26 18.5 -53.5 q1.5 -27.5 -15 -43.5 q-16.5 -16 -41.5 -19 q-25 -3 -38.5 12 q-13.5 15 -12.5 34 q0 2 4.5 24.5 q4.5 22.5 3.5 40.5 q-1 16 -5 32 q-4 16 -11.5 28 q-7.5 12 -8.5 16.5 q-1 4.5 2.5 8.5 q3.5 4 13.5 -2 l12 -8 ZM621 384 l0 120 l-104 0 l-53 -3 l-24 29 l66 -6 l115 -1 l0 100 l-104 0 l-53 -3 l-24 28 l66 -6 l115 1 l0 58 l-3 67 q5 4 17 3 q7 -2 64 -6.5 q57 -4.5 60 -23.5 q1 -9 -29 -25 l0 -73 l93 0 q11 14 27.5 35.5 q16.5 21.5 25 22 q8.5 0.5 22.5 -8.5 q66 -48 63 -58.5 q-3 -10.5 -11 -10.5 l-220 0 l0 -100 l68 0 q38 54 45 57 q7 3 29 -13 q0 -1 29 -26 q29 -25 27 -31 q-2 -6 -12 -6 l-186 0 l0 -120 l114 0 q43 59 54.5 60.5 q11.5 1.5 30.5 -14.5 l29 -23 q8 -8 20.5 -20 q12.5 -12 11.5 -17 q-1 -5 -12 -5 l-507 0 l-53 -3 l-24 28 l66 -6 l161 0 ZM802 75 l-224 0 l-1 -123 l5 -80 q-3 -8 -11 -18 q-8 -10 -59 -9 q-22 0 -30 4.5 q-8 4.5 -12 12.5 l5 107 l0 264 l-5 97 q3 2 6 3 l15 -6 l93 -33 l209 0 q23 38 30 41.5 q7 3.5 33 -9.5 q77 -41 79 -48 q2 -10 -20 -29 l-1 -339 q-1 -19 -10 -46.5 q-9 -27.5 -106 -32.5 q-14 -1 -19 2 q-5 3 -7 12 l-4 21 q-9 33 -56 53 l-30 12 q-10 3 -7 10 q3 7 15 5 l25 -5 q33 -7 55.5 -4.5 q22.5 2.5 27 8.5 q4.5 6 4.5 16 l0 114 ZM578 94 l224 0 l0 81 l-224 0 l0 -81 ZM577 195 l225 0 l0 80 l-225 0 l0 -80 Z" /><glyph glyph-name="" unicode="&#x7ea2;" d="M311 686 q-25 -30 -37 -45 l-79 -107 l-45 -58 q59 -7 119 -17 q28 47 46 89 l12 28 l9 24 q7 6 23 -2 q125 -66 116 -82 q-6 -10 -42 -10 q-26 -37 -34 -47.5 q-8 -10.5 -185 -227.5 q46 2 69 5 l131 16 l43 4 q10 0 11.5 -6 q1.5 -6 -8.5 -10 l-40 -17 q-65 -28 -155.5 -65.5 q-90.5 -37.5 -119.5 -50.5 l-34 -15 q-12 -6 -14 -5 l-4 15 l-38 106 q-6 14 -4 16 q2 2 7 4 l24 7 q47 15 76 53 q29 38 76 116 q-36 -7 -104 -24 l-28 -7 l-17 -5 q-5 0 -7 3 l-3 9 l-32 80 q-4 10 -4 12 q0 2 1 3.5 q1 1.5 23.5 5.5 q22.5 4 52 65 q29.5 61 47.5 108 q18 47 27 76 l8 27 l4 21 q1 0 4 1 q3 0 74 -28.5 q71 -28.5 70 -42.5 q-1 -11 -39 -22 ZM407 56 l43 10 q12 2 15.5 -3.5 q3.5 -5.5 -6.5 -11.5 l-36 -21 q-253 -147 -255 -148 l-42 -28 q-18 -12 -20 -11.5 q-2 0.5 -4 7.5 l-48 119 l-8 16 q0 2 3 5 l17 2 l50 8 q98 14 291 56 ZM602 -81 l0 712 l-158 0 l-53 -3 l-24 29 l66 -6 l358 0 q54 72 65 75 q11 3 38 -21 q33 -31 51.5 -45.5 q18.5 -14.5 14.5 -21.5 q-4 -7 -12 -7 l-208 0 q-4 -14 -6 -15 l-15 -13 l0 -684 l105 0 q56 75 66 77.5 q10 2.5 34 -17.5 q57 -52 63.5 -60 q6.5 -8 4.5 -13.5 q-2 -5.5 -14 -5.5 l-597 0 l-53 -3 l-24 28 l67 -6 l231 0 Z" /><glyph glyph-name="" unicode="&#x7ea7;" d="M154 476 q47 -10 92 -14 q23 41 40 77 l14 30 l9 21 q2 1 6 2 q14 1 72 -33.5 q58 -34.5 58 -43.5 q-1 -21 -40 -18 q-17 -22 -25 -32 l-133 -157 l-38 -45 q80 5 119 8.5 q39 3.5 49 4.5 l31 2 q17 1 18.5 -5.5 q1.5 -6.5 -8.5 -10.5 l-35 -15 q-164 -70 -175 -76 l-49 -26 l-42 -22 q-22 -12 -27 -9 l-9 27 l-27 79 l-7 18 q-1 3 1 6 q1 3 29.5 6.5 q28.5 3.5 66 53 q37.5 49.5 75.5 112.5 q-25 -7 -52.5 -13 q-27.5 -6 -37.5 -9 l-30 -11 q-15 -6 -17.5 -4.5 q-2.5 1.5 -6.5 15.5 l-27 76 l-5 12 q0 2 0 4 q0 1 8 2 q8 1 21 11.5 q13 10.5 26.5 26 q13.5 15.5 27 42.5 q13.5 27 34.5 75 q21 48 25 62 l10 39 q7 27 12 30.5 q5 3.5 33 -13.5 l46 -21 q57 -28 60 -38 q4 -18 -15 -17 l-25 -4 q-48 -69 -152 -205 ZM180 -57 l-67 -45 l-14 -10 q-4 -1 -6 1 l-4 15 l-36 101 l-6 13 q0 5 12 7 l37 5 q32 4 253 54 l40 9 q12 2 13 -3.5 q1 -5.5 -6 -9.5 l-29 -18 l-54 -36 l-81 -50 l-52 -33 l0 0 ZM463 667 l-26 0 l-53 -3 l-24 29 l67 -6 l285 -1 q28 43 35 44.5 q7 1.5 25 -6.5 q69 -35 81.5 -46.5 q12.5 -11.5 12.5 -17.5 q-1 -15 -37 -30 l-71 -243 l48 0 q24 39 32.5 42.5 q8.5 3.5 33.5 -10.5 l35 -19 q53 -31 53 -44 q-1 -12 -38 -33 q-33 -84 -58 -135 q-25 -51 -69 -120 q40 -34 87.5 -63 q47.5 -29 73.5 -37 l30 -10 q13 -5 14.5 -9.5 q1.5 -4.5 -17.5 -11.5 l-24 -9 q-15 -6 -34.5 -20 q-19.5 -14 -31.5 -34.5 q-12 -20.5 -19.5 -23.5 q-7.5 -3 -35.5 22 q-66 56 -118 115 q-81 -59 -148 -89 q-67 -30 -177 -49 l-51 -9 q-21 -4 -18.5 4 q2.5 8 7.5 10 l41 14 q88 30 162.5 83 q74.5 53 126.5 117 q-29 54 -49 104 q-20 50 -27 121 l-11 92 q-5 -59 -9.5 -105 q-4.5 -46 -18 -101.5 q-13.5 -55.5 -42 -103 q-28.5 -47.5 -62 -79.5 q-33.5 -32 -77 -66.5 q-43.5 -34.5 -64.5 -47.5 l-36 -22 q-17 -10 -21 -5 q-4 5 9 18 l25 24 q113 107 137 186.5 q24 79.5 33.5 142.5 q9.5 63 15.5 202 q4 126 0 193 l-3 46 l0 0 ZM718 139 q32 51 52.5 103.5 q20.5 52.5 41.5 125.5 l-58 0 q-37 -33 -44 -33 q-15 -1 -50 36.5 q-35 37.5 -33 44.5 q1 7 31 23 q26 88 31 105 l32 123 l-119 0 q-10 -16 -22 -28 q0 -80 1.5 -122 q1.5 -42 6 -77 q4.5 -35 23 -103.5 q18.5 -68.5 48 -116 q29.5 -47.5 59.5 -81.5 Z" /><glyph glyph-name="" unicode="&#x8896;" d="M300 537 l-161 0 l-58 -3 l-27 28 l70 -6 l173 0 q30 41 36 43.5 q6 2.5 24 -4.5 q106 -46 108 -64 q1 -21 -34 -26 q-16 -16 -23 -24 l-60 -70 l-45 -46 q17 -6 20.5 -15 q3.5 -9 -25.5 -24 l0 -83 l11 0 q27 47 46 89 l14 31 l6 15 q7 6 25 -6 q6 -5 44 -26.5 q38 -21.5 33.5 -37 q-4.5 -15.5 -35.5 -12.5 q-41 -28 -95 -64 q18 -8 42 -19 q24 -11 43.5 -35 q19.5 -24 20 -54 q0.5 -30 -30.5 -50.5 q-31 -20.5 -50.5 -4.5 q-19.5 16 -24.5 34 l-8 52 q-9 41 -42 72 l0 -250 l5 -103 q-13 -25 -75 -30 q-19 -2 -25 1.5 q-6 3.5 -10 10.5 l5 111 l0 305 q-64 -49 -103 -72 l-36 -22 q-12 -8 -14.5 0.5 q-2.5 8.5 3.5 15.5 l29 29 q14 14 52.5 59 q38.5 45 53.5 66 q15 21 53.5 80.5 q38.5 59.5 64.5 108.5 ZM191 774 q102 -27 120.5 -68.5 q18.5 -41.5 6.5 -70 q-12 -28.5 -39 -41 q-27 -12.5 -53 -2.5 q-14 4 -22.5 14.5 q-8.5 10.5 -10 44 q-1.5 33.5 -5.5 60 q-4 26.5 -19.5 39 q-15.5 12.5 -20 22.5 q-4.5 10 15.5 7 l27 -5 ZM831 535 q24 41 34 44 q10 3 29 -7 q78 -43 82 -55 q3 -15 -29 -34 l0 -482 l7 -114 q-16 -25 -84 -26 q-31 -1 -31 16 l0 45 l-254 0 l0 -32 q0 -15 -22 -23.5 q-22 -8.5 -46 -10 q-24 -1.5 -30 4 q-6 5.5 -9 13.5 l6 114 l0 468 l-4 125 q3 5 6 5 l8 -5 l98 -46 l69 0 l0 99 l-6 134 q3 5 14 5 q113 -10 116 -27 q1 -10 -25 -27 l0 -184 l71 0 ZM585 -59 l76 0 l0 300 l-76 0 l0 -300 ZM585 260 l76 0 l0 255 l-76 0 l0 -255 ZM839 -59 l0 300 l-79 0 l0 -300 l79 0 ZM760 260 l79 0 l0 255 l-79 0 l0 -255 Z" /><glyph glyph-name="" unicode="&#x8bfb;" d="M397 108 q-37 -38 -149 -164 l-54 -61 q-13 -15 -18.5 -14.5 q-5.5 0.5 -8.5 9.5 l-54 117 q-3 5 -2 7.5 q1 2.5 10 7 q9 4.5 14 14 q5 9.5 6.5 14.5 q1.5 5 1.5 13 l0 378 l-43 0 l-44 -3 l-29 28 l67 -6 l38 0 q33 42 41 45 q18 5 61.5 -24 q43.5 -29 44.5 -35 q0 -9 -31 -27 l0 -350 q61 22 126 51 l-47 -3 l-30 28 l67 -6 l239 0 q13 42 18 68 q5 26 12.5 72 q7.5 46 10 69.5 q2.5 23.5 4.5 52.5 l2 31 q0 6 7 6 q28 -2 120 -33 q26 51 49 109 l-468 0 l-43 -3 l-30 29 l67 -6 l178 0 l0 112 l-129 0 l-43 -3 l-30 28 l68 -6 l134 0 l0 20 l-5 103 q0 6 1.5 7.5 q1.5 1.5 10.5 1.5 l41 -3 q70 -7 81 -12 q11 -5 13 -11 q2 -9 -28 -37 l0 -69 l106 0 q58 74 65.5 75 q7.5 1 22.5 -11 q54 -49 66 -62 q12 -13 9 -17 q-3 -4 -8 -4 l-261 0 l0 -112 l179 0 q24 34 31 35 q7 1 20 -5 q25 -15 69 -49 q44 -34 39 -47 q-3 -7 -20 -9 l-38 -2 q-65 -6 -134 -64 q4 -4 5 -8 q1 -4 -14 -11 l-22 -11 q-9 -56 -20 -103.5 q-11 -47.5 -30 -120.5 l110 0 q47 60 53.5 67.5 q6.5 7.5 13 8 q6.5 0.5 21.5 -11.5 q54 -49 66 -62 q12 -13 9 -17 q-3 -4 -8 -4 l-271 0 q-15 -35 -27 -55 q97 -18 188.5 -40.5 q91.5 -22.5 81.5 -116.5 q-4 -27 -21 -43.5 q-17 -16.5 -43 -18 q-26 -1.5 -43 21.5 q-5 5 -13.5 25 q-8.5 20 -27 50 q-18.5 30 -50 61 q-31.5 31 -79.5 47 q-37 -46 -100 -97.5 q-63 -51.5 -155 -75.5 q-92 -24 -119 -27 l-31 -4 q-12 -2 -11.5 4.5 q0.5 6.5 9.5 9.5 l36 10 q71 19 148 73.5 q77 54.5 105.5 99.5 q28.5 45 42.5 76 l-197 0 ZM464 448 q86 -9 106.5 -39 q20.5 -30 19.5 -51 q-2 -22 -19 -40 q-17 -18 -38.5 -18.5 q-21.5 -0.5 -34.5 10.5 q-10 7 -13 13.5 q-3 6.5 -9.5 37 q-6.5 30.5 -22 46 q-15.5 15.5 -28.5 21.5 q-13 6 -12 14 q1 11 51 6 ZM110 766 q166 -28 164.5 -90.5 q-1.5 -62.5 -22 -86.5 q-20.5 -24 -51.5 -21 q-36 2 -44.5 20 q-8.5 18 -10.5 38.5 q-2 20.5 -6 41 q-4 20.5 -14 46.5 q-10 26 -25 32.5 q-15 6.5 -17 9.5 q-2 3 2 8 q3 5 24 2 ZM380 305 q55 -10 92.5 -28.5 q37.5 -18.5 38 -56 q0.5 -37.5 -17 -55.5 q-17.5 -18 -45.5 -17 q-20 0 -30.5 8.5 q-10.5 8.5 -14.5 23.5 l-7 39 q-4 17 -11 30 q-7 13 -15.5 22.5 q-8.5 9.5 -17 13.5 q-8.5 4 -12.5 8 q-4 4 -0.5 11 q3.5 7 40.5 1 Z" /><glyph glyph-name="" unicode="&#x8d39;" d="M302 459 l-90 0 l-13 -17 q-10 -13 -17 -14 q-7 -1 -22 11 q-5 3 -38 24 q-33 21 -31 34 q0 1 16 16 l14 12 q12 29 21 57 l3 10 q4 14 3.5 30 q-0.5 16 5 19 q5.5 3 27.5 -8 l75 -41 l75 0 q1 34 2 42 l1 33 l-192 0 l-58 -3 l-24 28 l74 -5 l200 0 l-1 39 l-4 52 q3 1 9 2 q4 0 29 -3 q25 -3 66 -5 q41 -2 41.5 -14.5 q0.5 -12.5 -24.5 -28.5 l-3 -42 l85 0 l0 16 q0 50 -2 61.5 q-2 11.5 -1 13 q1 1.5 9 0.5 q0 -1 60 -4 q60 -3 62 -20 q0 -13 -24 -22 l1 -45 l107 0 l20 25 q8 10 14 11.5 q6 1.5 15 -3 q9 -4.5 50.5 -19.5 q41.5 -15 44.5 -31 q0 -8 -21 -30 l0 -43 l1 -33 q-13 -21 -70 -25 q-32 -3 -34 4 q-2 7 -2 17 l0 13 l-125 0 l0 -94 l191 0 l18 25 q7 10 18.5 12.5 q11.5 2.5 60 -27.5 q48.5 -30 48.5 -35 q-1 -9 -27 -27 q-17 -55 -32 -80.5 q-15 -25.5 -27 -34 q-12 -8.5 -38 -18.5 q-26 -10 -40 -6 q-9 1 -13 5 q-4 4 -13 28 q-9 24 -57 57 l-15 10 l-7 3 q-16 16 13 10 l32 -7 q26 -6 41 -5 q24 1 33 17 q9 16 17 53 l-203 0 l0 -31 l3 -75 q-15 -27 -81 -27 q-19 -1 -24 2.5 q-5 3.5 -8 11.5 l5 99 l0 20 l-120 0 q-10 -22 -27.5 -52 q-17.5 -30 -86.5 -73 l41 -18 l318 0 l24 25 q7 7 14.5 7.5 q7.5 0.5 57 -29.5 q49.5 -30 49.5 -39 q-1 -9 -17 -19 l0 -129 l2 -79 q-10 -16 -23 -19 q-13 -3 -53 -6 q-18 -2 -26.5 1.5 q-8.5 3.5 -15.5 17.5 l5 98 l0 152 l-345 0 l0 -210 l3 -87 q-12 -19 -38.5 -25 q-26.5 -6 -39.5 -5 q-12 0 -19 4 q-7 4 -11 9 l4 119 l0 196 q-48 -20 -113 -34 l-27 -6 q-24 -6 -27 -5 q-3 1 -3.5 5 q-0.5 4 0 5.5 q0.5 1.5 10.5 6.5 l27 12 q39 17 93 47 q54 30 114 130 ZM214 479 l95 0 q5 14 8.5 25 q3.5 11 12.5 69 l-84 0 l-32 -94 ZM421 479 l111 0 l0 94 l-95 0 q-4 -39 -5 -46 l-11 -48 l0 0 ZM441 592 l91 0 l0 75 l-87 0 q-3 -37 -3 -46 l-1 -29 l0 0 ZM762 592 l0 75 l-125 0 l0 -75 l125 0 ZM554 196 q-8 -64 -20 -128 q-12 -64 -49 -105.5 q-37 -41.5 -109.5 -78 q-72.5 -36.5 -208.5 -41.5 l-51 -2 l-12 -1 q-10 2 -8.5 8.5 q1.5 6.5 23.5 11.5 l48 9 q69 13 124.5 44.5 q55.5 31.5 89.5 70 q34 38.5 43.5 91 q9.5 52.5 11.5 97.5 l2 54 l-2 31 q2 2 7 3 q2 0 7.5 -1.5 q5.5 -1.5 65.5 -6.5 q60 -5 66 -24 q5 -18 -28 -32 ZM572 20 q40 0 133 -2 q93 -2 144.5 -35 q51.5 -33 51 -72 q-0.5 -39 -18.5 -57 q-18 -18 -42 -17 q-20 0 -33 8.5 q-13 8.5 -69 58 q-56 49.5 -151 81.5 l-37 12 l-18 4 q-11 3 -11.5 9 q-0.5 6 24.5 8 l27 2 Z" /><glyph glyph-name="" unicode="&#x8f7d;" d="M41 507 l75 -6 l145 0 l0 107 l-109 0 l-62 -3 l-30 26 l70 -4 l130 0 l0 64 l-4 82 q3 1 9 2 q8 0 66.5 -7 q58.5 -7 61.5 -19 q2 -15 -25 -28 l0 -94 l35 0 q45 74 56 76 q4 0 18 -6.5 q14 -6.5 44.5 -41 q30.5 -34.5 28.5 -41 q-2 -6.5 -9 -6.5 l-173 0 l0 -107 l200 0 q-2 67 -2.5 125 q-0.5 58 -0.5 74 l-2 42 l-2 34 q1 0 5 0 q116 -9 128 -16 q12 -7 14 -12 q2 -13 -28 -33 q-4 -77 -4 -89 l-2 -125 l141 0 q15 18 34 42.5 q19 24.5 31 25.5 q5 0 14 -6.5 q9 -6.5 42.5 -35 q33.5 -28.5 31 -38 q-2.5 -9.5 -8.5 -9.5 l-285 0 q1 -67 3.5 -101 q2.5 -34 8 -77.5 q5.5 -43.5 11.5 -61.5 l9 -30 q12 24 18 37 l28 71 q10 26 13 35 l11 38 l6 28 q2 1 8 1 q15 -1 74.5 -26 q59.5 -25 61.5 -39 q1 -18 -34 -25 q-31 -62 -51.5 -99 q-20.5 -37 -86.5 -137 q86 -119 126 -104 q15 5 45 61 l31 63 l9 16 q2 4 8 3 q6 -1 5 -9 l-11 -52 q-6 -25 -9 -48.5 q-3 -23.5 -3.5 -38 q-0.5 -14.5 3.5 -28.5 q1 -5 10 -30 q9 -25 8.5 -39.5 q-0.5 -14.5 -13.5 -31 q-13 -16.5 -52 -15.5 q-57 0 -121 46.5 q-64 46.5 -114 117.5 q-107 -96 -227 -142 l-26 -10 q-11 -4 -14.5 0.5 q-3.5 4.5 4.5 10.5 l33 24 q12 9 68.5 59.5 q56.5 50.5 116.5 135.5 q-12 28 -17.5 46 q-5.5 18 -15 60 q-9.5 42 -16.5 89 q-7 47 -10 131 l-3 71 l-303 0 q25 -10 52 -20 q27 -10 25.5 -23 q-1.5 -13 -33.5 -18 l-24 -49 l119 0 q46 69 55.5 70.5 q9.5 1.5 26.5 -10.5 q39 -30 53.5 -48 q14.5 -18 13 -23.5 q-1.5 -5.5 -7.5 -5.5 l-270 0 l-76 -160 l86 0 l0 59 l-3 63 q4 5 15 4 q14 -2 57 -6.5 q43 -4.5 50.5 -9.5 q7.5 -5 9.5 -10 q3 -14 -24 -27 l0 -73 l23 0 q52 75 65 75 q17 -1 55 -40.5 q38 -39.5 37 -47.5 q-1 -8 -17 -8 l-163 0 l0 -88 q51 6 98 11 q47 5 65 8 l29 4 q11 1 9 -7 q-2 -8 -9 -10 l-192 -65 l0 -85 l3 -66 q-2 -11 -6.5 -17.5 q-4.5 -6.5 -27 -14.5 q-22.5 -8 -55.5 -3 q-15 1 -19 6 q-4 5 -5 16 l5 82 l0 47 q-131 -45 -145 -50 l-31 -12 q-22 -9 -23 -7 l-2 8 l-29 87 q-15 43 -14 44 q1 1 4 3 l27 -3 l43 1 q65 1 170 14 l0 96 l-98 0 q-31 -25 -34.5 -27 q-3.5 -2 -7.5 -1 q-9 0 -21 12 l-42 44 q-20 18 -16 29 q3 11 43 20 q27 46 53 105 l-40 0 l-53 -4 l-31 26 l50 -5 l83 0 q32 58 41 110 l-76 0 l-67 -4 l-29 31 ZM703 709 q1 4 3.5 5.5 q2.5 1.5 47 2 q44.5 0.5 80 -11 q35.5 -11.5 46.5 -35.5 q11 -24 11.5 -46 q0.5 -22 -19.5 -42.5 q-20 -20.5 -48 -19.5 q-17 0 -28.5 8 q-11.5 8 -18.5 27 l-10 32 q-14 40 -29.5 51.5 q-15.5 11.5 -26 17.5 q-10.5 6 -8.5 11 Z" /><glyph glyph-name="" unicode="&#x957f;" d="M36 338 l67 -6 l128 0 l0 326 l-6 120 q2 5 12 4 q6 -1 31.5 -3 q25.5 -2 65.5 -9.5 q40 -7.5 43 -11.5 q3 -4 4 -8 q0 -6 -31 -30 l-1 -310 q116 97 186 181.5 q70 84.5 101 131.5 l18 28 q6 10 9 12 q3 2 13 -3 q38 -22 81 -59 q43 -37 42 -49 q-1 -5 -2.5 -7 q-1.5 -2 -46.5 -8 q-107 -88 -189.5 -143 q-82.5 -55 -211.5 -118 l0 -44 l407 0 q41 54 59.5 77 q18.5 23 25.5 24.5 q7 1.5 23 -9.5 q12 -10 44 -39 q32 -29 45.5 -44.5 q13.5 -15.5 10.5 -21.5 q-3 -6 -15 -6 l-414 0 q50 -142 148.5 -202.5 q98.5 -60.5 163 -81 q64.5 -20.5 94.5 -23.5 l39 -4 q10 -2 10.5 -6.5 q0.5 -4.5 -8.5 -7.5 l-35 -13 q-41 -16 -59 -49 q-18 -33 -21 -42.5 q-3 -9.5 -6 -10.5 q-9 -3 -75 34 q-66 37 -122.5 91.5 q-56.5 54.5 -94.5 129 q-38 74.5 -51 133.5 l-13 52 l-156 0 l0 -293 q79 24 160 54 l44 16 q13 5 15 -1.5 q2 -6.5 -5 -11.5 l-49 -35 q-83 -58 -194 -162 l-30 -28 q-12 -11 -15 -11.5 q-3 -0.5 -6 5.5 l-66 108 q-6 8 -5.5 12 q0.5 4 12.5 13.5 q12 9.5 16.5 21 q4.5 11.5 4.5 44.5 l0 268 l-121 0 l-54 -3 l-20 28 Z" /><glyph glyph-name="" unicode="&#x9605;" d="M235 768 q112 -11 139 -51.5 q27 -40.5 26.5 -68 q-0.5 -27.5 -20 -47.5 q-19.5 -20 -51.5 -19 q-28 0 -41.5 13.5 q-13.5 13.5 -17.5 36.5 l-5 38 q-5 29 -18 48.5 q-13 19.5 -22 26.5 l-17 11 q-4 3 -4.5 8 q-0.5 5 10.5 5 l21 -1 ZM518 401 q31 91 40 133 l6 30 l1 8 q2 5 14 1 q3 -2 18.5 -7 q15.5 -5 45.5 -18.5 q30 -13.5 36.5 -18.5 q6.5 -5 7 -9.5 q0.5 -4.5 -7.5 -9.5 q-5 -3 -29 -10 q-47 -49 -91 -99 l56 0 q20 32 27 34.5 q7 2.5 20 -2.5 q8 -4 48.5 -27 q40.5 -23 29.5 -35 l-9 -6 l-10 -10 l0 -80 l4 -54 q-2 -11 -7.5 -18 q-5.5 -7 -32 -10.5 q-26.5 -3.5 -36.5 -2.5 q-25 1 -25 21 l0 23 l-77 0 q54 -7 56 -20.5 q2 -13.5 -15 -22.5 l0 -107 q0 -20 6 -27.5 q6 -7.5 37 -9 q31 -1.5 47 0.5 q20 2 38 12.5 q18 10.5 39 67.5 l14 39 q2 7 7.5 6.5 q5.5 -0.5 4.5 -9.5 l-8 -42 q-6 -30 -8 -42 q-2 -12 5 -21 q2 -5 8 -8 l10 -7 q10 -9 10.5 -20.5 q0.5 -11.5 -7.5 -22.5 q-17 -23 -46 -29.5 q-29 -6.5 -100 -7.5 q-73 -2 -101.5 8 q-28.5 10 -36 25 q-7.5 15 -7.5 51 l0 186 l-87 0 q65 -21 73 -26 q8 -5 7.5 -10.5 q-0.5 -5.5 -17.5 -13.5 q-27 -69 -47 -107 q-20 -38 -58 -69 q-38 -31 -123 -57 l-29 -9 q-9 -3 -11.5 2 q-2.5 5 6.5 11 l27 17 q107 66 124 142.5 q17 76.5 22 119.5 l-11 0 l0 -15 q0 -13 -17.5 -20 q-17.5 -7 -43 -7.5 q-25.5 -0.5 -29 5 q-3.5 5.5 -3.5 13.5 l3 61 l0 105 l-3 67 q4 6 19 -1 l81 -41 l135 0 ZM376 253 l248 0 l0 131 l-248 0 l0 -131 ZM368 554 q74 -13 92.5 -40.5 q18.5 -27.5 18 -48 q-0.5 -20.5 -16 -37 q-15.5 -16.5 -37.5 -13.5 q-30 3 -35.5 19 q-5.5 16 -7 36 q-1.5 20 -6 29.5 q-4.5 9.5 -13.5 22.5 q-9 13 -17 17 q-8 4 -11 10 q-3 6 14 6 l19 -1 ZM196 561 l-1 -531 l7 -136 q-2 -11 -8.5 -24 q-6.5 -13 -65.5 -16 q-16 -1 -30 2 q-14 3 -16 23 l6 134 l0 513 l-5 101 q2 6 14 5 l35 -4 q90 -12 96 -32 q3 -15 -32 -35 ZM434 676 l74 -6 l299 0 q34 45 41.5 47 q7.5 2 27.5 -8 q77 -42 79 -60 q1 -18 -34 -35 l0 -706 q0 -26 -15 -45.5 q-15 -19.5 -69 -28 q-54 -8.5 -58 -1.5 q-2 2 -6.5 31.5 q-4.5 29.5 -57.5 48.5 l-29 10 q-12 4 -10 10.5 q2 6.5 12 6.5 l39 -3 q74 -6 83 4.5 q9 10.5 9 40.5 l0 668 l-293 0 l-64 -3 l-28 29 Z" /><glyph glyph-name="" unicode="&#x9650;" d="M728 338 l-88 0 q10 -46 19.5 -74.5 q9.5 -28.5 17.5 -38.5 l38 -59 q71 67 97 118 l9 18 q5 10 17 4 q48 -27 71.5 -50.5 q23.5 -23.5 23.5 -28.5 q-3 -16 -40 -13 q-77 -34 -161 -68 q33 -46 97.5 -90.5 q64.5 -44.5 126.5 -62.5 l31 -10 q5 -2 6 -8 q1 -6 -9 -9 l-28 -9 q-10 -3 -22 -11 q-12 -8 -29 -24 q-17 -16 -28 -33 q-11 -17 -18 -18 q-7 -1 -18 9 l-68 58 q-34 32 -89 114 l-132 -117 l-70 -70 q-10 -3 -14 6 l-49 95 l-6 11 q-1 2 3 7 l9 12 q6 9 6 37 l0 572 l-7 127 q1 7 3 8.5 q2 1.5 19 -5.5 l93 -40 l175 0 q32 44 38.5 45.5 q6.5 1.5 22.5 -6.5 l43 -21 q53 -27 56 -37 q2 -13 -30 -35 l-1 -196 l7 -94 q-1 -14 -8.5 -25.5 q-7.5 -11.5 -75.5 -15.5 q-38 -3 -38 16 l0 12 ZM676 72 q-27 61 -38.5 100.5 q-11.5 39.5 -16.5 103.5 l-6 62 l-81 0 l0 -313 q72 21 142 47 ZM534 357 l194 0 l0 153 l-194 0 l0 -153 ZM534 529 l194 0 l0 147 l-194 0 l0 -147 ZM274 692 l-103 0 l0 -673 l6 -123 q-4 -14 -12 -22.5 q-8 -8.5 -44 -13.5 q-36 -5 -43.5 2.5 q-7.5 7.5 -9.5 20.5 l7 133 l0 604 l-6 126 q2 8 5 9.5 q3 1.5 22 -6.5 l81 -37 l86 0 q13 16 21 27.5 q8 11.5 14 13.5 q6 1 24 -7.5 q18 -8.5 55.5 -30 q37.5 -21.5 37.5 -33.5 q-1 -11 -41 -29 q-17 -29 -25 -43 l-54 -82 l-29 -47 q59 -44 83.5 -74 q24.5 -30 40 -63 q15.5 -33 17 -64.5 q1.5 -31.5 -14.5 -65.5 q-17 -35 -41 -55.5 q-24 -20.5 -50 -29 q-26 -8.5 -39 -5.5 q-5 0 -7.5 2.5 q-2.5 2.5 -3 12 q-0.5 9.5 -9.5 39.5 q-9 30 -32 42 l-18 9 q-12 5 -11 11 q1 6 15 4 l20 -3 q45 -7 70.5 14.5 q25.5 21.5 21.5 73.5 q-5 51 -48 110 l-15 20 l-20 24 q-1 5 3 18 l12 39 l11 46 l16 60 l7 46 l0 0 Z" /><glyph glyph-name="" unicode="&#x9996;" d="M35 551 l68 -6 l441 -1 q17 57 24.5 88 q7.5 31 15.5 81 l6 37 l3 31 q1 0 4 1 q19 2 95 -27.5 q76 -29.5 75 -42.5 q-1 -5 -7 -9 l-20 -7 l-15 -6 q-59 -75 -121 -145 l200 0 q35 38 51 59 q16 21 23 21 q7 -1 44.5 -34.5 q37.5 -33.5 46.5 -44.5 q9 -11 6.5 -16 q-2.5 -5 -17.5 -5 l-393 0 q-10 -15 -12 -16 l-21 -11 l-73 -108 l218 1 q18 21 29 34 q11 13 17.5 14.5 q6.5 1.5 21.5 -6.5 q97 -55 97 -66 q-1 -7 -30 -29 l0 -369 l4 -92 q-11 -17 -60 -27.5 q-49 -10.5 -58 0 q-9 10.5 -9 26.5 l0 39 l-348 0 l0 -42 q0 -23 -28.5 -27.5 q-28.5 -4.5 -55.5 -5 q-27 -0.5 -32 6.5 q-5 7 -5 20 l6 87 l0 395 l-6 90 q3 1 5.5 1.5 q2.5 0.5 28.5 -10.5 l88 -39 l45 0 q11 57 16 97 l4 37 l-283 0 l-51 -3 l-38 29 ZM341 86 l348 0 l0 137 l-348 0 l0 -137 ZM341 243 l348 0 l0 128 l-348 0 l0 -128 ZM341 -66 l348 0 l0 132 l-348 0 l0 -132 ZM286 758 q171 -27 168 -89 q-3 -62 -22 -83 q-19 -21 -50 -19 q-22 0 -35.5 11.5 q-13.5 11.5 -20.5 33.5 l-11 43 q-10 30 -28.5 52 q-18.5 22 -27.5 29 l-18 12 q-3 2 -4.5 7.5 q-1.5 5.5 17.5 4.5 l32 -2 Z" /><glyph glyph-name="" unicode="&#xff0c;" d="M188 -127 l33 35 q10 12 18 25 q8 13 13 23 l6 16 q5 13 3.5 18.5 q-1.5 5.5 -4 7.5 q-2.5 2 -6.5 2 l-12 -2 q-6 -2 -14 0 q-35 4 -53 26 q-18 22 -18 51.5 q0 29.5 22 51.5 q22 22 64.5 25 q42.5 3 74 -31 q31.5 -34 31.5 -81 q-1 -31 -16 -64 q-15 -33 -39 -57.5 q-24 -24.5 -46 -43 q-22 -18.5 -33.5 -23.5 q-11.5 -5 -19 -4.5 q-7.5 0.5 -10.5 5.5 q-3 5 -0.5 10.5 q2.5 5.5 6.5 9.5 Z" /></font>
</defs>
</svg>
